<?xml version="1.0" standalone="no"?>
<!DOCTYPE svg PUBLIC "-//W3C//DTD SVG 1.1//EN" "http://www.w3.org/Graphics/SVG/1.1/DTD/svg11.dtd">
<svg width="4000px" height="4000px" version="1.1" xmlns="http://www.w3.org/2000/svg" xmlns:xlink="http://www.w3.org/1999/xlink">
<g id="ideograms">
<g id="highlight0">
<path d="M 1996.677,200.003 A1800.000,1800.000 0.000 0,1 3731.633,1508.629 L 3827.835,1481.331 A1900.000,1900.000 0.000 0,0 1996.492,100.003 Z " style="stroke: none;   fill: rgb(116,196,118); " />
</g>
<path d="M 1996.861,300.003 A1700.000,1700.000 0.000 0,1 3635.432,1535.927 L 3731.633,1508.629 A1800.000,1800.000 0.000 0,0 1996.677,200.003 Z " style="stroke-width: 1.0; stroke: rgb(0,0,0);  fill: rgb(253,141,60); " />
<path d="M 1996.861,300.003 A1700.000,1700.000 0.000 0,1 2315.187,329.474 L 2333.727,231.208 A1800.000,1800.000 0.000 0,0 1996.677,200.003 Z " style="stroke-width: 2.0; stroke: rgb(0,0,0);  fill: rgb(150,150,150); " />
<path d="M 2312.102,328.895 A1700.000,1700.000 0.000 0,1 2616.520,415.733 L 2652.786,322.541 A1800.000,1800.000 0.000 0,0 2330.461,230.595 Z " style="stroke-width: 2.0; stroke: rgb(0,0,0);  fill: rgb(251,106,74); " />
<path d="M 2613.594,414.597 A1700.000,1700.000 0.000 0,1 3146.783,745.054 L 3214.241,671.234 A1800.000,1800.000 0.000 0,0 2649.688,321.338 Z " style="stroke-width: 2.0; stroke: rgb(0,0,0);  fill: rgb(116,196,118); " />
<path d="M 3144.464,742.939 A1700.000,1700.000 0.000 0,1 3635.432,1535.927 L 3731.633,1508.629 A1800.000,1800.000 0.000 0,0 3211.785,668.994 Z " style="stroke-width: 2.0; stroke: rgb(0,0,0);  fill: rgb(107,174,214); " />
<g id="highlight0">
</g>
<path d="M 1996.861,300.003 A1700.000,1700.000 0.000 0,1 3635.432,1535.927 L 3731.633,1508.629 A1800.000,1800.000 0.000 0,0 1996.677,200.003 Z " style="stroke-width: 1.0; stroke: rgb(0,0,0);  fill: none; " />
<g id="highlight0">
<path d="M 3436.549,3084.586 A1800.000,1800.000 0.000 0,1 1348.762,3678.061 L 1312.583,3771.287 A1900.000,1900.000 0.000 0,0 3516.357,3144.841 Z " style="stroke: none;   fill: rgb(107,174,214); " />
</g>
<path d="M 3358.630,3021.825 A1700.000,1700.000 0.000 0,1 1384.942,3584.836 L 1348.762,3678.061 A1800.000,1800.000 0.000 0,0 3438.549,3081.932 Z " style="stroke-width: 1.0; stroke: rgb(0,0,0);  fill: rgb(251,106,74); " />
<path d="M 3358.630,3021.825 A1700.000,1700.000 0.000 0,1 3143.303,3258.117 L 3210.556,3332.124 A1800.000,1800.000 0.000 0,0 3438.549,3081.932 Z " style="stroke-width: 2.0; stroke: rgb(0,0,0);  fill: rgb(150,150,150); " />
<path d="M 3145.624,3256.004 A1700.000,1700.000 0.000 0,1 2892.893,3446.631 L 2945.416,3531.727 A1800.000,1800.000 0.000 0,0 3213.013,3329.887 Z " style="stroke-width: 2.0; stroke: rgb(0,0,0);  fill: rgb(251,106,74); " />
<path d="M 2895.563,3444.980 A1700.000,1700.000 0.000 0,1 2310.559,3671.393 L 2328.827,3769.710 A1800.000,1800.000 0.000 0,0 2948.243,3529.979 Z " style="stroke-width: 2.0; stroke: rgb(0,0,0);  fill: rgb(116,196,118); " />
<path d="M 2313.645,3670.816 A1700.000,1700.000 0.000 0,1 1384.942,3584.836 L 1348.762,3678.061 A1800.000,1800.000 0.000 0,0 2332.094,3769.100 Z " style="stroke-width: 2.0; stroke: rgb(0,0,0);  fill: rgb(107,174,214); " />
<g id="highlight0">
</g>
<path d="M 3358.630,3021.825 A1700.000,1700.000 0.000 0,1 1384.942,3584.836 L 1348.762,3678.061 A1800.000,1800.000 0.000 0,0 3438.549,3081.932 Z " style="stroke-width: 1.0; stroke: rgb(0,0,0);  fill: none; " />
<g id="highlight0">
<path d="M 268.821,2492.969 A1800.000,1800.000 0.000 0,1 564.453,914.088 L 484.700,853.759 A1900.000,1900.000 0.000 0,0 172.644,2520.357 Z " style="stroke: none;   fill: rgb(251,106,74); " />
</g>
<path d="M 365.860,2468.600 A1700.000,1700.000 0.000 0,1 644.206,974.416 L 564.453,914.088 A1800.000,1800.000 0.000 0,0 269.734,2496.165 Z " style="stroke-width: 1.0; stroke: rgb(0,0,0);  fill: rgb(107,174,214); " />
<path d="M 365.860,2468.600 A1700.000,1700.000 0.000 0,1 328.464,2309.788 L 230.139,2328.010 A1800.000,1800.000 0.000 0,0 269.734,2496.165 Z " style="stroke-width: 2.0; stroke: rgb(0,0,0);  fill: rgb(150,150,150); " />
<path d="M 329.039,2312.873 A1700.000,1700.000 0.000 0,1 307.024,2154.374 L 207.437,2163.455 A1800.000,1800.000 0.000 0,0 230.747,2331.278 Z " style="stroke-width: 2.0; stroke: rgb(0,0,0);  fill: rgb(251,106,74); " />
<path d="M 307.312,2157.500 A1700.000,1700.000 0.000 0,1 365.428,1532.909 L 269.277,1505.433 A1800.000,1800.000 0.000 0,0 207.742,2166.764 Z " style="stroke-width: 2.0; stroke: rgb(0,0,0);  fill: rgb(116,196,118); " />
<path d="M 364.568,1535.927 A1700.000,1700.000 0.000 0,1 644.206,974.416 L 564.453,914.088 A1800.000,1800.000 0.000 0,0 268.367,1508.629 Z " style="stroke-width: 2.0; stroke: rgb(0,0,0);  fill: rgb(107,174,214); " />
<g id="highlight0">
</g>
<path d="M 365.860,2468.600 A1700.000,1700.000 0.000 0,1 644.206,974.416 L 564.453,914.088 A1800.000,1800.000 0.000 0,0 269.734,2496.165 Z " style="stroke-width: 1.0; stroke: rgb(0,0,0);  fill: none; " />
</g>
<g id="segdup2">
<path d="M 2307.307,371.237 A 1657.500,1657.500 0.00 0,1 2598.3,454.2 L 2598.3,454.2 2562.2,552.8 2531.6,647.5 2506.0,738.5 2484.8,826.1 2467.8,910.5 2454.4,992.0 2444.2,1070.7 2437.0,1147.0 2432.4,1220.9 2430.2,1292.8 2430.0,1362.9 2431.6,1431.2 2434.9,1498.1 2439.7,1563.7 2445.7,1628.2 2453.0,1691.7 2461.3,1754.5 2470.8,1816.7 2481.2,1878.5 2492.7,1940.1 2505.2,2001.5 2518.8,2062.9 2533.6,2124.5 2549.7,2186.4 2567.3,2248.7 2586.5,2311.6 2607.5,2375.2 2630.6,2439.6 2656.0,2504.8 2683.9,2571.1 2714.9,2638.4 2749.0,2707.0 2786.8,2776.8 2828.7,2848.0 2875.0,2920.6 2926.3,2994.7 2983.0,3070.4 3045.6,3147.7 3114.7,3226.7  A 1657.500,1657.500 0.00 0,1 2873.2,3408.9 L 2873.2,3408.9 2812.2,3307.4 2757.4,3209.9 2708.0,3116.1 2663.7,3026.0 2623.9,2939.3 2588.2,2855.8 2556.1,2775.4 2527.3,2697.8 2501.4,2622.8 2477.9,2550.3 2456.7,2479.9 2437.4,2411.5 2419.7,2344.9 2403.4,2279.8 2388.3,2216.0 2374.3,2153.3 2361.0,2091.4 2348.5,2030.0 2336.6,1968.9 2325.2,1907.8 2314.3,1846.6 2303.9,1784.8 2294.0,1722.2 2284.5,1658.6 2275.6,1593.7 2267.3,1527.1 2259.9,1458.6 2253.3,1387.8 2247.7,1314.6 2243.5,1238.4 2240.7,1159.1 2239.6,1076.4 2240.6,989.8 2243.8,899.0 2249.7,803.8 2258.6,703.8 2270.9,598.6 2287.0,487.8 2307.3,371.2  Z" style="stroke-width: 1.0;  stroke: rgb(0,0,0); fill: rgb(251,106,74);"/>
</g>
<g id="segdup1">
<path d="M 2000.000,342.500 A 1657.500,1657.500 0.00 0,1 2304.3,370.7 L 2304.3,370.7 2287.0,474.2 2274.3,572.9 2265.8,667.0 2261.1,757.0 2259.8,843.1 2261.6,925.7 2266.1,1005.0 2273.0,1081.2 2282.1,1154.8 2293.0,1225.9 2305.7,1294.7 2319.9,1361.6 2335.4,1426.8 2352.1,1490.4 2369.9,1552.6 2388.7,1613.8 2408.4,1674.0 2429.1,1733.4 2450.7,1792.3 2473.3,1850.6 2496.8,1908.7 2521.5,1966.6 2547.4,2024.4 2574.6,2082.3 2603.3,2140.4 2633.7,2198.7 2666.1,2257.3 2700.6,2316.3 2737.5,2375.8 2777.2,2435.8 2819.9,2496.4 2866.1,2557.5 2916.1,2619.1 2970.3,2681.4 3029.2,2744.3 3093.2,2807.7 3162.8,2871.7 3238.5,2936.2 3321.0,3001.2  A 1657.500,1657.500 0.00 0,1 3117.0,3224.6 L 3117.0,3224.6 3038.4,3136.0 2966.5,3050.2 2900.8,2967.1 2840.6,2886.6 2785.5,2808.6 2735.1,2733.1 2688.7,2659.9 2646.1,2588.9 2606.8,2520.0 2570.4,2453.0 2536.6,2387.7 2505.0,2324.1 2475.3,2261.8 2447.3,2200.9 2420.8,2140.9 2395.4,2081.9 2370.9,2023.4 2347.3,1965.4 2324.3,1907.6 2301.9,1849.7 2279.9,1791.5 2258.3,1732.7 2236.9,1673.1 2215.9,1612.3 2195.2,1550.1 2174.7,1486.2 2154.7,1420.3 2135.2,1352.0 2116.2,1281.0 2097.9,1206.9 2080.5,1129.5 2064.1,1048.3 2049.0,963.0 2035.4,873.2 2023.6,778.5 2013.8,678.5 2006.4,572.8 2001.7,460.9 2000.0,342.5  Z" style="stroke-width: 1.0;  stroke: rgb(0,0,0); fill: rgb(150,150,150);"/>
<path d="M 3320.976,3001.164 A 1657.500,1657.500 0.00 0,1 3117.0,3224.6 L 3117.0,3224.6 3044.8,3148.4 2973.7,3078.8 2903.7,3015.3 2834.7,2957.3 2766.7,2904.4 2699.8,2856.1 2633.8,2811.9 2568.8,2771.5 2504.6,2734.4 2441.2,2700.3 2378.6,2668.9 2316.7,2639.9 2255.4,2613.1 2194.6,2588.1 2134.2,2564.7 2074.0,2542.9 2014.1,2522.4 1954.2,2503.1 1894.2,2484.9 1834.0,2467.7 1773.5,2451.5 1712.4,2436.3 1650.7,2422.1 1588.1,2409.0 1524.5,2396.9 1459.6,2386.1 1393.3,2376.5 1325.4,2368.5 1255.7,2362.1 1183.9,2357.6 1109.8,2355.3 1033.2,2355.3 953.9,2358.0 871.5,2363.8 785.9,2372.9 696.7,2385.7 603.7,2402.7 506.6,2424.3 405.0,2451.0  A 1657.500,1657.500 0.00 0,1 370.8,2305.1 L 370.8,2305.1 484.0,2285.6 591.7,2270.6 694.1,2259.4 791.7,2251.8 884.7,2247.2 973.5,2245.4 1058.4,2246.0 1139.8,2248.7 1217.8,2253.3 1293.0,2259.4 1365.4,2267.0 1435.6,2275.6 1503.6,2285.3 1569.8,2295.9 1634.5,2307.2 1698.0,2319.1 1760.4,2331.7 1822.1,2344.9 1883.2,2358.6 1944.1,2373.0 2005.0,2388.0 2066.1,2403.8 2127.5,2420.5 2189.6,2438.1 2252.6,2457.0 2316.5,2477.1 2381.7,2498.9 2448.3,2522.5 2516.5,2548.1 2586.4,2576.2 2658.3,2607.1 2732.3,2641.0 2808.5,2678.4 2887.2,2719.7 2968.3,2765.4 3052.2,2815.8 3138.8,2871.6 3228.4,2933.2 3321.0,3001.2  Z" style="stroke-width: 1.0;  stroke: rgb(0,0,0); fill: rgb(150,150,150);"/>
</g>
<g id="plot0">
<g id="plot0-axis">
</g>
<text x="2494.3" y="3864.6" style="fill: rgb(0,0,0); font-size: 130.0px; text-anchor: start" transform="rotate(74.1,2494.3,3864.6)">Y</text>
<text x="3189.7" y="482.8" style="fill: rgb(0,0,0); font-size: 130.0px; text-anchor: start" transform="rotate(307.0,3189.7,482.8)">X</text>
<text x="108.2" y="1684.3" style="fill: rgb(0,0,0); font-size: 130.0px; text-anchor: end" transform="rotate(10.6,108.2,1684.3)">Z</text>
</g>
</svg>
