<?xml version="1.0" standalone="no"?>
<!DOCTYPE svg PUBLIC "-//W3C//DTD SVG 1.1//EN" "http://www.w3.org/Graphics/SVG/1.1/DTD/svg11.dtd">
<svg width="3000px" height="3000px" version="1.1" xmlns="http://www.w3.org/2000/svg" xmlns:xlink="http://www.w3.org/1999/xlink">
<g id="ideograms">
<g id="highlight0">
<path d="M 345.578,1172.419 A1200.000,1200.000 0.000 0,1 1502.216,300.002 L 1502.400,200.002 A1300.000,1300.000 0.000 0,0 249.376,1145.121 Z " style="stroke: none;   fill: rgb(116,196,118); " />
</g>
<path d="M 441.780,1199.718 A1100.000,1100.000 0.000 0,1 1502.031,400.002 L 1502.216,300.002 A1200.000,1200.000 0.000 0,0 345.578,1172.419 Z " style="stroke-width: 1.0; stroke: rgb(0,0,0);  fill: rgb(253,141,60); " />
<text x="704.9" y="505.9" style="fill: rgb(0,0,0); font-size: 130.0px; text-anchor: end" transform="rotate(-37.0,704.9,505.9)">X</text>
<path d="M 1296.056,419.071 A1100.000,1100.000 0.000 0,1 1502.031,400.002 L 1502.216,300.002 A1200.000,1200.000 0.000 0,0 1277.515,320.805 Z " style="stroke-width: 2.0; stroke: rgb(0,0,0);  fill: rgb(150,150,150); " />
<path d="M 1101.075,474.886 A1100.000,1100.000 0.000 0,1 1298.052,418.697 L 1279.693,320.396 A1200.000,1200.000 0.000 0,0 1064.809,381.694 Z " style="stroke-width: 2.0; stroke: rgb(0,0,0);  fill: rgb(251,106,74); " />
<path d="M 757.964,687.976 A1100.000,1100.000 0.000 0,1 1102.968,474.151 L 1066.875,380.892 A1200.000,1200.000 0.000 0,0 690.506,614.156 Z " style="stroke-width: 2.0; stroke: rgb(0,0,0);  fill: rgb(116,196,118); " />
<path d="M 441.780,1199.718 A1100.000,1100.000 0.000 0,1 759.465,686.607 L 692.143,612.663 A1200.000,1200.000 0.000 0,0 345.578,1172.419 Z " style="stroke-width: 2.0; stroke: rgb(0,0,0);  fill: rgb(107,174,214); " />
<g id="highlight0">
</g>
<path d="M 441.780,1199.718 A1100.000,1100.000 0.000 0,1 1502.031,400.002 L 1502.216,300.002 A1200.000,1200.000 0.000 0,0 345.578,1172.419 Z " style="stroke-width: 1.0; stroke: rgb(0,0,0);  fill: none; " />
<g id="highlight0">
<path d="M 1934.158,2618.708 A1200.000,1200.000 0.000 0,1 542.301,2223.058 L 462.493,2283.312 A1300.000,1300.000 0.000 0,0 1970.338,2711.933 Z " style="stroke: none;   fill: rgb(107,174,214); " />
</g>
<path d="M 1897.978,2525.482 A1100.000,1100.000 0.000 0,1 620.887,2161.181 L 540.967,2221.288 A1200.000,1200.000 0.000 0,0 1934.158,2618.708 Z " style="stroke-width: 1.0; stroke: rgb(0,0,0);  fill: rgb(251,106,74); " />
<text x="1162.5" y="2824.7" style="fill: rgb(0,0,0); font-size: 130.0px; text-anchor: end" transform="rotate(375.9,1162.5,2824.7)">Y</text>
<path d="M 760.216,2314.076 A1100.000,1100.000 0.000 0,1 620.887,2161.181 L 540.967,2221.288 A1200.000,1200.000 0.000 0,0 692.963,2388.083 Z " style="stroke-width: 2.0; stroke: rgb(0,0,0);  fill: rgb(150,150,150); " />
<path d="M 922.246,2436.056 A1100.000,1100.000 0.000 0,1 758.714,2312.709 L 691.324,2386.591 A1200.000,1200.000 0.000 0,0 869.723,2521.151 Z " style="stroke-width: 2.0; stroke: rgb(0,0,0);  fill: rgb(251,106,74); " />
<path d="M 1299.050,2581.489 A1100.000,1100.000 0.000 0,1 920.518,2434.987 L 867.838,2519.986 A1200.000,1200.000 0.000 0,0 1280.782,2679.807 Z " style="stroke-width: 2.0; stroke: rgb(0,0,0);  fill: rgb(116,196,118); " />
<path d="M 1897.978,2525.482 A1100.000,1100.000 0.000 0,1 1297.054,2581.116 L 1278.604,2679.400 A1200.000,1200.000 0.000 0,0 1934.158,2618.708 Z " style="stroke-width: 2.0; stroke: rgb(0,0,0);  fill: rgb(107,174,214); " />
<g id="highlight0">
</g>
<path d="M 1897.978,2525.482 A1100.000,1100.000 0.000 0,1 620.887,2161.181 L 540.967,2221.288 A1200.000,1200.000 0.000 0,0 1934.158,2618.708 Z " style="stroke-width: 1.0; stroke: rgb(0,0,0);  fill: none; " />
<g id="highlight0">
<path d="M 2457.031,776.059 A1200.000,1200.000 0.000 0,1 2654.119,1828.646 L 2750.296,1856.033 A1300.000,1300.000 0.000 0,0 2536.784,715.730 Z " style="stroke: none;   fill: rgb(251,106,74); " />
</g>
<path d="M 2377.279,836.387 A1100.000,1100.000 0.000 0,1 2557.385,1803.212 L 2653.511,1830.777 A1200.000,1200.000 0.000 0,0 2457.031,776.059 Z " style="stroke-width: 1.0; stroke: rgb(0,0,0);  fill: rgb(107,174,214); " />
<text x="2757.6" y="1302.5" style="fill: rgb(0,0,0); font-size: 130.0px; text-anchor: start" transform="rotate(439.4,2757.6,1302.5)">Z</text>
<path d="M 2581.582,1700.451 A1100.000,1100.000 0.000 0,1 2557.385,1803.212 L 2653.511,1830.777 A1200.000,1200.000 0.000 0,0 2679.908,1718.674 Z " style="stroke-width: 2.0; stroke: rgb(0,0,0);  fill: rgb(150,150,150); " />
<path d="M 2595.455,1599.889 A1100.000,1100.000 0.000 0,1 2581.210,1702.447 L 2679.502,1720.852 A1200.000,1200.000 0.000 0,0 2695.042,1608.970 Z " style="stroke-width: 2.0; stroke: rgb(0,0,0);  fill: rgb(251,106,74); " />
<path d="M 2557.664,1197.764 A1100.000,1100.000 0.000 0,1 2595.269,1601.912 L 2694.839,1611.176 A1200.000,1200.000 0.000 0,0 2653.816,1170.288 Z " style="stroke-width: 2.0; stroke: rgb(0,0,0);  fill: rgb(116,196,118); " />
<path d="M 2377.279,836.387 A1100.000,1100.000 0.000 0,1 2558.220,1199.718 L 2654.422,1172.419 A1200.000,1200.000 0.000 0,0 2457.031,776.059 Z " style="stroke-width: 2.0; stroke: rgb(0,0,0);  fill: rgb(107,174,214); " />
<g id="highlight0">
</g>
<path d="M 2377.279,836.387 A1100.000,1100.000 0.000 0,1 2557.385,1803.212 L 2653.511,1830.777 A1200.000,1200.000 0.000 0,0 2457.031,776.059 Z " style="stroke-width: 1.0; stroke: rgb(0,0,0);  fill: none; " />
</g>
<g id="segdup2">
<path d="M 1298.095,429.881 A 1089.000,1089.000 0.00 0,0 1106.9,484.4 L 1106.9,484.4 1130.7,549.3 1150.9,611.7 1167.8,671.6 1181.7,729.2 1193.0,784.7 1201.9,838.3 1208.6,890.1 1213.4,940.2 1216.5,988.8 1218.0,1036.1 1218.2,1082.0 1217.2,1126.9 1215.1,1170.8 1212.0,1213.9 1208.1,1256.2 1203.4,1297.9 1197.9,1339.1 1191.7,1379.9 1184.9,1420.4 1177.4,1460.8 1169.2,1501.0 1160.2,1541.3 1150.5,1581.7 1139.9,1622.3 1128.3,1663.2 1115.7,1704.5 1101.8,1746.2 1086.6,1788.5 1069.9,1831.3 1051.5,1874.8 1031.1,1919.0 1008.6,1964.1 983.6,2010.0 956.1,2056.7 925.5,2104.5 891.7,2153.2 854.4,2203.0 813.1,2253.9 767.6,2305.9  A 1089.000,1089.000 0.00 0,0 926.3,2425.6 L 926.3,2425.6 966.4,2358.8 1002.6,2294.7 1035.1,2233.0 1064.3,2173.7 1090.5,2116.7 1114.0,2061.8 1135.2,2009.0 1154.2,1958.0 1171.3,1908.7 1186.7,1861.1 1200.7,1814.9 1213.5,1770.0 1225.1,1726.3 1235.8,1683.6 1245.8,1641.8 1255.0,1600.6 1263.7,1560.0 1272.0,1519.7 1279.8,1479.7 1287.2,1439.7 1294.4,1399.5 1301.2,1359.0 1307.7,1317.9 1313.9,1276.2 1319.7,1233.6 1325.1,1189.9 1329.9,1144.9 1334.2,1098.5 1337.8,1050.3 1340.5,1000.3 1342.3,948.2 1342.9,893.8 1342.2,836.9 1340.0,777.2 1336.1,714.6 1330.2,648.8 1322.1,579.5 1311.5,506.7 1298.1,429.9  Z" style="stroke-width: 1.0;  stroke: rgb(0,0,0); fill: rgb(251,106,74); opacity: 0.667;"/>
<path d="M 767.614,2305.935 A 1089.000,1089.000 0.00 0,0 926.3,2425.6 L 926.3,2425.6 962.7,2369.4 999.4,2317.5 1036.1,2269.5 1073.0,2225.3 1109.9,2184.4 1146.8,2146.6 1183.7,2111.5 1220.5,2079.0 1257.2,2048.7 1293.9,2020.5 1330.5,1994.1 1367.1,1969.3 1403.6,1946.0 1440.1,1924.0 1476.5,1903.2 1513.1,1883.4 1549.7,1864.6 1586.4,1846.6 1623.4,1829.4 1660.6,1812.9 1698.2,1797.1 1736.3,1782.0 1774.8,1767.6 1814.0,1753.9 1854.0,1741.0 1894.8,1728.8 1936.6,1717.4 1979.5,1707.1 2023.7,1697.8 2069.3,1689.6 2116.4,1682.8 2165.2,1677.5 2216.0,1673.8 2268.8,1671.9 2323.9,1672.1 2381.4,1674.7 2441.6,1679.7 2504.6,1687.5 2570.8,1698.4  A 1089.000,1089.000 0.00 0,0 2584.3,1600.9 L 2584.3,1600.9 2511.1,1595.3 2441.7,1592.3 2375.8,1591.6 2313.1,1593.0 2253.5,1596.2 2196.6,1601.1 2142.3,1607.4 2090.3,1614.9 2040.5,1623.5 1992.6,1633.0 1946.4,1643.4 1901.8,1654.5 1858.5,1666.2 1816.4,1678.4 1775.2,1691.1 1735.0,1704.3 1695.4,1717.8 1656.3,1731.8 1617.7,1746.3 1579.3,1761.2 1541.0,1776.6 1502.7,1792.6 1464.3,1809.3 1425.7,1826.8 1386.8,1845.1 1347.5,1864.5 1307.6,1885.1 1267.2,1907.0 1226.1,1930.5 1184.3,1955.8 1141.7,1983.0 1098.3,2012.5 1053.9,2044.5 1008.7,2079.3 962.5,2117.2 915.3,2158.4 867.1,2203.4 817.9,2252.4 767.6,2305.9  Z" style="stroke-width: 1.0;  stroke: rgb(0,0,0); fill: rgb(251,106,74); opacity: 0.667;"/>
</g>
<g id="segdup1">
<path d="M 1500.000,411.000 A 1089.000,1089.000 0.00 0,0 1300.1,429.5 L 1300.1,429.5 1311.5,497.7 1319.9,562.7 1325.5,624.6 1328.6,683.9 1329.5,740.5 1328.4,794.8 1325.5,847.0 1321.1,897.1 1315.2,945.5 1308.0,992.2 1299.7,1037.4 1290.5,1081.3 1280.4,1124.1 1269.5,1165.9 1257.8,1206.7 1245.5,1246.9 1232.6,1286.4 1219.0,1325.3 1204.9,1363.9 1190.1,1402.2 1174.6,1440.3 1158.4,1478.3 1141.4,1516.2 1123.5,1554.2 1104.7,1592.2 1084.7,1630.5 1063.4,1668.9 1040.7,1707.7 1016.4,1746.7 990.3,1786.1 962.1,1825.8 931.7,1866.0 898.8,1906.5 863.1,1947.4 824.3,1988.7 782.2,2030.5 736.3,2072.6 686.4,2115.0 632.1,2157.8  A 1089.000,1089.000 0.00 0,0 766.1,2304.6 L 766.1,2304.6 817.9,2246.2 865.2,2189.8 908.5,2135.1 948.1,2082.2 984.4,2030.9 1017.6,1981.3 1048.2,1933.2 1076.2,1886.6 1102.1,1841.3 1126.1,1797.3 1148.3,1754.5 1169.1,1712.7 1188.6,1671.9 1207.0,1631.9 1224.5,1592.6 1241.2,1553.9 1257.2,1515.5 1272.7,1477.5 1287.8,1439.6 1302.5,1401.6 1316.9,1363.5 1331.1,1324.9 1345.1,1285.8 1358.8,1245.9 1372.4,1205.1 1385.8,1163.2 1398.9,1119.9 1411.7,1075.0 1424.1,1028.4 1436.0,979.7 1447.4,928.8 1458.1,875.5 1468.0,819.4 1476.8,760.3 1484.6,698.0 1491.0,632.2 1495.8,562.6 1498.9,489.0 1500.0,411.0  Z" style="stroke-width: 1.0;  stroke: rgb(0,0,0); fill: rgb(150,150,150); opacity: 0.667;"/>
<path d="M 632.101,2157.778 A 1089.000,1089.000 0.00 0,0 766.1,2304.6 L 766.1,2304.6 813.7,2254.4 860.5,2208.5 906.5,2166.7 951.9,2128.5 996.6,2093.7 1040.6,2061.8 1083.9,2032.7 1126.7,2006.1 1168.8,1981.6 1210.4,1959.2 1251.5,1938.5 1292.1,1919.5 1332.4,1901.8 1372.3,1885.3 1411.9,1870.0 1451.3,1855.6 1490.6,1842.2 1529.9,1829.5 1569.2,1817.5 1608.7,1806.3 1648.4,1795.7 1688.5,1785.7 1729.0,1776.4 1770.1,1767.8 1811.8,1759.9 1854.4,1752.9 1897.9,1746.7 1942.5,1741.4 1988.3,1737.3 2035.5,1734.4 2084.1,1732.9 2134.5,1733.0 2186.7,1734.9 2240.8,1738.7 2297.2,1744.8 2355.9,1753.3 2417.1,1764.5 2481.1,1778.7 2547.9,1796.3  A 1089.000,1089.000 0.00 0,0 2570.4,1700.4 L 2570.4,1700.4 2495.8,1687.6 2425.0,1677.7 2357.6,1670.3 2293.4,1665.2 2232.2,1662.2 2173.8,1660.9 2118.0,1661.3 2064.5,1663.0 2013.2,1665.9 1963.8,1669.9 1916.2,1674.8 1870.2,1680.4 1825.5,1686.7 1782.0,1693.6 1739.6,1701.0 1698.0,1708.8 1657.0,1717.0 1616.6,1725.7 1576.5,1734.7 1536.5,1744.1 1496.6,1754.0 1456.6,1764.3 1416.3,1775.3 1375.5,1786.9 1334.3,1799.3 1292.3,1812.6 1249.5,1826.9 1205.8,1842.4 1161.1,1859.3 1115.1,1877.8 1067.9,1898.2 1019.3,1920.5 969.2,1945.2 917.5,1972.4 864.2,2002.5 809.0,2035.7 752.0,2072.4 693.1,2113.0 632.1,2157.8  Z" style="stroke-width: 1.0;  stroke: rgb(0,0,0); fill: rgb(150,150,150); opacity: 0.667;"/>
</g>
<g id="segdup4">
<path d="M 765.384,696.096 A 1089.000,1089.000 0.00 0,0 452.9,1200.8 L 452.9,1200.8 511.3,1218.9 565.7,1238.5 616.5,1259.5 664.0,1281.8 708.5,1305.2 750.1,1329.7 789.2,1355.1 825.9,1381.4 860.5,1408.4 893.2,1436.1 924.0,1464.5 953.3,1493.5 981.2,1523.0 1007.6,1553.0 1032.9,1583.5 1057.1,1614.4 1080.2,1645.9 1102.4,1677.8 1123.7,1710.2 1144.1,1743.2 1163.6,1776.6 1182.3,1810.7 1200.1,1845.4 1217.1,1880.9 1233.1,1917.1 1248.1,1954.2 1262.1,1992.3 1275.0,2031.4 1286.6,2071.7 1296.9,2113.3 1305.7,2156.3 1312.8,2200.9 1318.2,2247.2 1321.5,2295.4 1322.7,2345.6 1321.4,2398.0 1317.6,2452.9 1310.9,2510.4 1301.1,2570.7  A 1089.000,1089.000 0.00 0,0 1892.1,2516.0 L 1892.1,2516.0 1859.9,2434.7 1828.3,2359.0 1797.4,2288.2 1767.1,2222.2 1737.6,2160.6 1708.9,2103.0 1681.0,2049.1 1654.0,1998.6 1627.8,1951.1 1602.5,1906.4 1578.0,1864.2 1554.2,1824.1 1531.2,1785.9 1508.9,1749.3 1487.2,1714.1 1466.1,1679.9 1445.4,1646.5 1425.0,1613.8 1404.9,1581.3 1384.8,1548.9 1364.7,1516.4 1344.5,1483.6 1323.8,1450.2 1302.7,1416.0 1280.8,1380.9 1258.0,1344.6 1234.1,1307.0 1208.8,1267.9 1181.9,1227.1 1153.2,1184.5 1122.4,1139.9 1089.2,1093.2 1053.4,1044.2 1014.6,992.8 972.6,938.9 927.0,882.4 877.5,823.2 823.7,761.1 765.4,696.1  Z" style="stroke-width: 1.0;  stroke: rgb(0,0,0); fill: rgb(107,174,214); opacity: 0.667;"/>
<path d="M 1301.060,2570.674 A 1089.000,1089.000 0.00 0,0 1892.1,2516.0 L 1892.1,2516.0 1872.7,2461.9 1856.7,2409.9 1844.0,2359.9 1834.3,2311.7 1827.4,2265.1 1823.0,2220.2 1820.9,2176.6 1821.0,2134.4 1823.0,2093.4 1826.8,2053.4 1832.2,2014.5 1839.2,1976.5 1847.6,1939.4 1857.3,1903.0 1868.2,1867.4 1880.3,1832.4 1893.4,1798.1 1907.7,1764.3 1922.9,1731.0 1939.2,1698.3 1956.6,1666.1 1974.9,1634.4 1994.4,1603.2 2015.1,1572.5 2037.0,1542.3 2060.1,1512.7 2084.7,1483.6 2110.8,1455.1 2138.6,1427.3 2168.2,1400.2 2199.7,1373.9 2233.4,1348.4 2269.4,1323.8 2307.9,1300.3 2349.2,1277.8 2393.5,1256.5 2441.1,1236.5 2492.2,1217.9 2547.1,1200.8  A 1089.000,1089.000 0.00 0,0 2369.7,844.6 L 2369.7,844.6 2308.1,892.4 2251.2,939.1 2198.6,984.9 2149.9,1029.6 2104.9,1073.2 2063.1,1115.9 2024.2,1157.5 1988.1,1198.2 1954.3,1237.9 1922.7,1276.7 1892.9,1314.7 1864.8,1351.9 1838.1,1388.5 1812.7,1424.4 1788.3,1459.8 1764.8,1494.8 1742.0,1529.5 1719.7,1564.1 1697.9,1598.6 1676.5,1633.2 1655.3,1668.1 1634.3,1703.4 1613.4,1739.3 1592.5,1776.0 1571.7,1813.6 1550.9,1852.4 1530.1,1892.6 1509.3,1934.3 1488.5,1977.9 1467.9,2023.5 1447.4,2071.4 1427.1,2121.9 1407.2,2175.3 1387.6,2231.7 1368.6,2291.5 1350.3,2355.0 1332.8,2422.5 1316.4,2494.3 1301.1,2570.7  Z" style="stroke-width: 1.0;  stroke: rgb(0,0,0); fill: rgb(107,174,214); opacity: 0.667;"/>
</g>
<g id="segdup3">
<path d="M 1105.064,485.137 A 1089.000,1089.000 0.00 0,0 766.9,694.7 L 766.9,694.7 809.6,743.7 848.2,791.7 882.8,838.9 914.0,885.3 941.9,930.9 966.9,975.8 989.2,1020.0 1009.1,1063.5 1026.8,1106.5 1042.6,1148.9 1056.5,1190.8 1068.9,1232.2 1079.9,1273.3 1089.5,1314.1 1098.0,1354.6 1105.4,1394.8 1111.8,1434.9 1117.3,1475.0 1121.9,1515.0 1125.6,1555.0 1128.5,1595.2 1130.5,1635.6 1131.6,1676.2 1131.8,1717.1 1130.9,1758.5 1128.9,1800.3 1125.7,1842.7 1121.2,1885.7 1115.2,1929.5 1107.5,1974.1 1098.0,2019.6 1086.5,2066.0 1072.7,2113.6 1056.5,2162.3 1037.4,2212.3 1015.4,2263.6 990.0,2316.4 961.0,2370.7 928.0,2426.7  A 1089.000,1089.000 0.00 0,0 1299.1,2570.3 L 1299.1,2570.3 1313.4,2489.0 1325.1,2412.0 1334.5,2339.1 1341.9,2270.1 1347.5,2204.7 1351.5,2142.7 1354.1,2083.8 1355.5,2027.8 1356.0,1974.5 1355.6,1923.5 1354.5,1874.8 1352.8,1828.0 1350.6,1782.9 1348.1,1739.3 1345.3,1697.0 1342.3,1655.6 1339.0,1615.1 1335.7,1575.1 1332.1,1535.5 1328.5,1496.0 1324.6,1456.5 1320.6,1416.6 1316.3,1376.1 1311.6,1335.0 1306.6,1292.8 1301.0,1249.5 1294.8,1204.8 1287.8,1158.5 1279.9,1110.4 1270.9,1060.3 1260.6,1007.9 1248.9,953.1 1235.5,895.8 1220.1,835.5 1202.6,772.3 1182.6,705.8 1159.9,635.9 1134.1,562.4 1105.1,485.1  Z" style="stroke-width: 1.0;  stroke: rgb(0,0,0); fill: rgb(116,196,118); opacity: 0.667;"/>
<path d="M 928.023,2426.695 A 1089.000,1089.000 0.00 0,0 1299.1,2570.3 L 1299.1,2570.3 1311.7,2510.5 1326.2,2454.5 1342.4,2402.0 1360.2,2352.6 1379.4,2306.2 1399.9,2262.4 1421.6,2221.2 1444.3,2182.2 1468.0,2145.2 1492.6,2110.2 1518.0,2076.8 1544.1,2044.9 1570.9,2014.5 1598.4,1985.3 1626.4,1957.3 1655.0,1930.4 1684.2,1904.4 1713.9,1879.4 1744.2,1855.2 1775.1,1831.9 1806.6,1809.3 1838.8,1787.6 1871.7,1766.6 1905.5,1746.4 1940.0,1727.1 1975.6,1708.7 2012.2,1691.2 2049.9,1674.8 2089.0,1659.5 2129.4,1645.4 2171.5,1632.7 2215.2,1621.4 2260.8,1611.8 2308.5,1604.0 2358.4,1598.2 2410.7,1594.6 2465.7,1593.3 2523.6,1594.7 2584.5,1598.9  A 1089.000,1089.000 0.00 0,0 2547.6,1202.7 L 2547.6,1202.7 2473.0,1225.0 2403.0,1248.1 2337.5,1271.8 2275.9,1295.9 2218.1,1320.3 2163.8,1345.0 2112.5,1369.8 2064.1,1394.7 2018.3,1419.5 1974.8,1444.3 1933.3,1469.0 1893.7,1493.6 1855.6,1518.0 1818.9,1542.4 1783.4,1566.6 1748.8,1590.7 1715.0,1614.9 1681.8,1639.1 1649.0,1663.4 1616.5,1688.0 1584.2,1712.8 1551.8,1738.2 1519.4,1764.1 1486.7,1790.8 1453.7,1818.3 1420.3,1847.0 1386.4,1877.0 1351.9,1908.4 1316.8,1941.5 1281.1,1976.6 1244.7,2013.9 1207.6,2053.7 1169.7,2096.2 1131.1,2141.8 1091.8,2190.7 1051.8,2243.3 1011.2,2300.0 969.9,2361.0 928.0,2426.7  Z" style="stroke-width: 1.0;  stroke: rgb(0,0,0); fill: rgb(116,196,118); opacity: 0.667;"/>
</g>
</svg>
