<?xml version="1.0" standalone="no"?>
<!DOCTYPE svg PUBLIC "-//W3C//DTD SVG 1.1//EN" "http://www.w3.org/Graphics/SVG/1.1/DTD/svg11.dtd">
<svg width="3000px" height="3000px" version="1.1" xmlns="http://www.w3.org/2000/svg" xmlns:xlink="http://www.w3.org/1999/xlink">
<g id="ideograms">
<path d="M 1968.880,504.937 A1100.000,1100.000 0.000 0,1 2599.620,1528.915 L 2699.585,1531.544 A1200.000,1200.000 0.000 0,0 2011.506,414.476 Z " style="stroke-width: 1.0; stroke: rgb(0,0,0);  fill: rgb(0,0,0); " />
<path d="M 2554.324,1186.312 A1100.000,1100.000 0.000 0,1 2599.620,1528.915 L 2699.585,1531.544 A1200.000,1200.000 0.000 0,0 2650.172,1157.795 Z " style="stroke-width: 2.0; stroke: rgb(0,0,0);  fill: rgb(251,106,74); " />
<path d="M 2404.966,874.671 A1100.000,1100.000 0.000 0,1 2562.206,1214.135 L 2658.770,1188.148 A1200.000,1200.000 0.000 0,0 2487.236,817.823 Z " style="stroke-width: 2.0; stroke: rgb(0,0,0);  fill: rgb(116,196,118); " />
<path d="M 1968.880,504.937 A1100.000,1100.000 0.000 0,1 2421.091,898.676 L 2504.827,844.010 A1200.000,1200.000 0.000 0,0 2011.506,414.476 Z " style="stroke-width: 2.0; stroke: rgb(0,0,0);  fill: rgb(107,174,214); " />
<path d="M 1968.880,504.937 A1100.000,1100.000 0.000 0,1 2599.620,1528.915 L 2699.585,1531.544 A1200.000,1200.000 0.000 0,0 2011.506,414.476 Z " style="stroke-width: 1.0; stroke: rgb(0,0,0);  fill: none; " />
<path d="M 501.876,1962.330 A1100.000,1100.000 0.000 0,1 1722.570,422.752 L 1742.804,324.821 A1200.000,1200.000 0.000 0,0 411.138,2004.361 Z " style="stroke-width: 1.0; stroke: rgb(0,0,0);  fill: rgb(0,0,0); " />
<path d="M 1097.484,476.291 A1100.000,1100.000 0.000 0,1 1722.570,422.752 L 1742.804,324.821 A1200.000,1200.000 0.000 0,0 1060.892,383.226 Z " style="stroke-width: 2.0; stroke: rgb(0,0,0);  fill: rgb(251,106,74); " />
<path d="M 434.128,1228.122 A1100.000,1100.000 0.000 0,1 1124.533,466.064 L 1090.399,372.069 A1200.000,1200.000 0.000 0,0 337.231,1203.406 Z " style="stroke-width: 2.0; stroke: rgb(0,0,0);  fill: rgb(116,196,118); " />
<path d="M 501.876,1962.330 A1100.000,1100.000 0.000 0,1 441.643,1200.198 L 345.429,1172.943 A1200.000,1200.000 0.000 0,0 411.138,2004.361 Z " style="stroke-width: 2.0; stroke: rgb(0,0,0);  fill: rgb(107,174,214); " />
<path d="M 501.876,1962.330 A1100.000,1100.000 0.000 0,1 1722.570,422.752 L 1742.804,324.821 A1200.000,1200.000 0.000 0,0 411.138,2004.361 Z " style="stroke-width: 1.0; stroke: rgb(0,0,0);  fill: none; " />
<path d="M 2562.206,1785.865 A1100.000,1100.000 0.000 0,1 638.057,2183.414 L 559.699,2245.542 A1200.000,1200.000 0.000 0,0 2658.770,1811.852 Z " style="stroke-width: 1.0; stroke: rgb(0,0,0);  fill: rgb(0,0,0); " />
<path d="M 1151.841,2543.449 A1100.000,1100.000 0.000 0,1 638.057,2183.414 L 559.699,2245.542 A1200.000,1200.000 0.000 0,0 1120.190,2638.308 Z " style="stroke-width: 2.0; stroke: rgb(0,0,0);  fill: rgb(251,106,74); " />
<path d="M 2143.049,2392.461 A1100.000,1100.000 0.000 0,1 1124.533,2533.936 L 1090.399,2627.931 A1200.000,1200.000 0.000 0,0 2201.508,2473.594 Z " style="stroke-width: 2.0; stroke: rgb(0,0,0);  fill: rgb(116,196,118); " />
<path d="M 2562.206,1785.865 A1100.000,1100.000 0.000 0,1 2119.368,2409.057 L 2175.674,2491.698 A1200.000,1200.000 0.000 0,0 2658.770,1811.852 Z " style="stroke-width: 2.0; stroke: rgb(0,0,0);  fill: rgb(107,174,214); " />
<path d="M 2562.206,1785.865 A1100.000,1100.000 0.000 0,1 638.057,2183.414 L 559.699,2245.542 A1200.000,1200.000 0.000 0,0 2658.770,1811.852 Z " style="stroke-width: 1.0; stroke: rgb(0,0,0);  fill: none; " />
</g>
<g id="segdup2">
<path d="M 2395.917,880.924 A 1089.000,1089.000 0.00 0,0 1989.9,527.4 L 1989.9,527.4 1941.6,623.4 1896.9,712.1 1855.7,793.9 1817.7,869.1 1782.7,938.1 1750.6,1001.3 1721.0,1058.9 1693.7,1111.3 1668.5,1158.7 1645.2,1201.5 1623.5,1239.9 1603.1,1274.2 1583.7,1304.6 1565.2,1331.3 1547.2,1354.6 1529.4,1374.7 1511.5,1391.8 1493.3,1406.0 1474.4,1417.6 1454.6,1426.6 1433.5,1433.2 1410.8,1437.6 1386.2,1439.9 1359.4,1440.1 1330.0,1438.4 1297.6,1434.8 1262.0,1429.5 1222.7,1422.3 1179.5,1413.5 1131.9,1403.0 1079.6,1390.8 1022.2,1377.0 959.3,1361.5 890.6,1344.3 815.6,1325.3 733.9,1304.5 645.2,1281.9 548.9,1257.4 444.8,1230.8  A 1089.000,1089.000 0.00 0,0 500.2,1931.6 L 500.2,1931.6 598.8,1889.0 690.0,1849.6 774.1,1813.3 851.6,1779.9 922.7,1749.1 988.0,1720.9 1047.8,1695.0 1102.5,1671.2 1152.5,1649.4 1198.2,1629.3 1240.0,1610.7 1278.4,1593.6 1313.6,1577.6 1346.1,1562.6 1376.2,1548.3 1404.4,1534.7 1431.1,1521.4 1456.6,1508.2 1481.3,1495.0 1505.6,1481.5 1529.9,1467.5 1554.6,1452.9 1580.0,1437.3 1606.6,1420.7 1634.7,1402.6 1664.6,1383.0 1696.8,1361.7 1731.7,1338.2 1769.6,1312.6 1810.8,1284.5 1855.9,1253.6 1905.0,1219.8 1958.7,1182.9 2017.2,1142.5 2081.0,1098.5 2150.4,1050.6 2225.8,998.5 2307.5,942.0 2395.9,880.9  Z" style="stroke-width: 1.0;  stroke: rgb(0,0,0); fill: rgb(107,174,214); opacity: 0.667;"/>
<path d="M 444.787,1230.841 A 1089.000,1089.000 0.00 0,0 500.2,1931.6 L 500.2,1931.6 598.8,1889.0 690.0,1849.6 774.1,1813.4 851.5,1780.0 922.6,1749.5 987.8,1721.7 1047.5,1696.5 1102.0,1673.8 1151.7,1653.6 1197.1,1635.8 1238.4,1620.3 1276.0,1607.1 1310.4,1596.2 1341.7,1587.5 1370.5,1581.2 1397.1,1577.2 1421.7,1575.6 1444.8,1576.4 1466.7,1579.6 1487.7,1585.4 1508.1,1593.9 1528.4,1605.0 1548.7,1619.1 1569.4,1636.2 1590.9,1656.4 1613.4,1679.9 1637.3,1706.8 1662.8,1737.5 1690.3,1772.0 1720.1,1810.6 1752.4,1853.5 1787.5,1900.9 1825.8,1953.2 1867.5,2010.5 1912.8,2073.2 1962.2,2141.5 2015.7,2215.8 2073.8,2296.3 2136.6,2383.5  A 1089.000,1089.000 0.00 0,0 2543.8,1810.6 L 2543.8,1810.6 2440.8,1779.9 2345.6,1751.6 2257.8,1725.5 2176.9,1701.4 2102.6,1679.3 2034.5,1659.0 1972.0,1640.5 1914.8,1623.5 1862.5,1608.0 1814.6,1593.8 1770.6,1580.8 1730.3,1568.9 1693.2,1558.0 1658.7,1548.0 1626.6,1538.6 1596.4,1529.9 1567.6,1521.7 1539.9,1513.9 1512.7,1506.3 1485.8,1498.9 1458.7,1491.5 1430.8,1484.0 1401.9,1476.2 1371.5,1468.2 1339.2,1459.7 1304.4,1450.7 1267.0,1441.0 1226.2,1430.5 1181.9,1419.1 1133.5,1406.6 1080.6,1393.1 1022.8,1378.3 959.7,1362.2 890.7,1344.6 815.6,1325.4 733.9,1304.6 645.2,1282.0 548.9,1257.4 444.8,1230.8  Z" style="stroke-width: 1.0;  stroke: rgb(0,0,0); fill: rgb(107,174,214); opacity: 0.667;"/>
<path d="M 2136.619,2383.537 A 1089.000,1089.000 0.00 0,0 2543.8,1810.6 L 2543.8,1810.6 2440.8,1779.9 2345.6,1751.6 2257.8,1725.4 2177.2,1701.4 2103.2,1679.2 2035.6,1658.8 1974.0,1640.1 1918.3,1622.9 1868.0,1607.0 1823.0,1592.3 1783.0,1578.6 1747.8,1565.8 1717.2,1553.7 1691.1,1542.2 1669.3,1531.0 1651.6,1520.0 1638.0,1509.1 1628.4,1498.0 1622.7,1486.6 1620.8,1474.7 1622.7,1462.0 1628.4,1448.5 1637.9,1433.9 1651.3,1418.0 1668.6,1400.6 1689.9,1381.5 1715.2,1360.6 1744.6,1337.5 1778.4,1312.1 1816.6,1284.1 1859.5,1253.4 1907.2,1219.7 1959.9,1182.8 2017.8,1142.5 2081.3,1098.5 2150.5,1050.5 2225.8,998.5 2307.5,942.0 2395.9,880.9  A 1089.000,1089.000 0.00 0,0 1989.9,527.4 L 1989.9,527.4 1941.6,623.4 1896.9,712.1 1855.7,793.9 1817.9,869.2 1783.2,938.4 1751.5,1001.9 1722.7,1060.1 1696.7,1113.3 1673.3,1162.0 1652.5,1206.5 1634.2,1247.2 1618.3,1284.5 1604.6,1318.8 1593.3,1350.5 1584.2,1379.9 1577.3,1407.4 1572.6,1433.4 1570.1,1458.3 1569.7,1482.5 1571.6,1506.3 1575.7,1530.1 1582.2,1554.4 1590.9,1579.3 1602.0,1605.4 1615.6,1633.0 1631.8,1662.5 1650.6,1694.2 1672.2,1728.6 1696.7,1765.9 1724.3,1806.6 1755.0,1851.0 1789.1,1899.5 1826.6,1952.4 1867.9,2010.1 1913.0,2073.0 1962.2,2141.4 2015.7,2215.8 2073.8,2296.3 2136.6,2383.5  Z" style="stroke-width: 1.0;  stroke: rgb(0,0,0); fill: rgb(107,174,214); opacity: 0.667;"/>
</g>
<g id="segdup1">
<path d="M 2543.781,1189.449 A 1089.000,1089.000 0.00 0,0 2411.9,904.7 L 2411.9,904.7 2321.9,963.4 2238.7,1017.7 2162.0,1067.8 2091.5,1113.7 2026.6,1155.9 1967.2,1194.3 1912.9,1229.1 1863.3,1260.6 1818.1,1288.7 1777.1,1313.6 1739.8,1335.4 1705.9,1354.2 1675.2,1369.9 1647.4,1382.7 1622.1,1392.4 1599.0,1399.3 1577.9,1403.1 1558.6,1404.0 1540.6,1401.7 1523.8,1396.4 1507.9,1387.8 1492.6,1375.9 1477.6,1360.5 1462.8,1341.6 1447.9,1319.0 1432.5,1292.5 1416.6,1261.9 1399.9,1227.0 1382.1,1187.6 1363.1,1143.5 1342.5,1094.4 1320.3,1040.0 1296.2,980.1 1270.1,914.4 1241.6,842.5 1210.7,764.2 1177.2,679.0 1140.8,586.5 1101.5,486.5  A 1089.000,1089.000 0.00 0,0 452.2,1203.2 L 452.2,1203.2 555.6,1232.5 651.2,1259.6 739.3,1284.5 820.5,1307.4 895.0,1328.5 963.5,1347.7 1026.2,1365.2 1083.6,1381.0 1136.1,1395.2 1184.2,1407.9 1228.2,1419.2 1268.7,1429.0 1305.9,1437.5 1340.4,1444.7 1372.6,1450.6 1402.8,1455.3 1431.6,1458.7 1459.3,1461.0 1486.3,1462.0 1513.2,1461.8 1540.2,1460.4 1567.9,1457.8 1596.6,1454.0 1626.8,1449.0 1658.8,1442.6 1693.2,1435.0 1730.4,1426.0 1770.7,1415.6 1814.6,1403.8 1862.5,1390.4 1914.8,1375.5 1972.0,1358.9 2034.5,1340.6 2102.6,1320.5 2176.9,1298.5 2257.8,1274.5 2345.6,1248.4 2440.8,1220.1 2543.8,1189.4  Z" style="stroke-width: 1.0;  stroke: rgb(0,0,0); fill: rgb(116,196,118); opacity: 0.667;"/>
<path d="M 1101.509,486.528 A 1089.000,1089.000 0.00 0,0 452.2,1203.2 L 452.2,1203.2 555.6,1232.5 651.2,1259.6 739.3,1284.5 820.3,1307.6 894.7,1328.8 962.7,1348.4 1024.7,1366.5 1081.1,1383.3 1132.2,1399.0 1178.2,1413.7 1219.4,1427.7 1256.2,1441.1 1288.8,1454.1 1317.4,1467.0 1342.2,1480.0 1363.5,1493.4 1381.5,1507.2 1396.3,1521.9 1408.1,1537.7 1417.1,1554.7 1423.5,1573.4 1427.3,1593.9 1428.6,1616.5 1427.6,1641.7 1424.4,1669.5 1419.0,1700.4 1411.4,1734.6 1401.8,1772.6 1390.1,1814.5 1376.3,1860.8 1360.6,1911.9 1342.7,1967.9 1322.7,2029.4 1300.6,2096.6 1276.3,2170.0 1249.7,2250.0 1220.8,2336.9 1189.3,2431.1 1155.3,2533.0  A 1089.000,1089.000 0.00 0,0 2113.2,2400.0 L 2113.2,2400.0 2052.7,2311.2 1996.7,2229.1 1945.2,2153.4 1897.7,2083.7 1854.1,2019.6 1814.1,1960.8 1777.5,1906.9 1744.1,1857.5 1713.6,1812.2 1685.7,1770.8 1660.4,1732.7 1637.3,1697.7 1616.2,1665.3 1596.9,1635.1 1579.2,1606.9 1562.9,1580.2 1547.7,1554.5 1533.5,1529.7 1520.0,1505.2 1507.0,1480.6 1494.3,1455.6 1481.8,1429.9 1469.2,1402.9 1456.3,1374.3 1442.9,1343.8 1428.9,1310.9 1414.0,1275.3 1398.0,1236.4 1380.8,1194.0 1362.2,1147.7 1342.0,1097.0 1320.0,1041.6 1296.1,981.0 1270.0,914.8 1241.6,842.7 1210.7,764.2 1177.2,679.0 1140.8,586.5 1101.5,486.5  Z" style="stroke-width: 1.0;  stroke: rgb(0,0,0); fill: rgb(116,196,118); opacity: 0.667;"/>
<path d="M 1155.323,2533.014 A 1089.000,1089.000 0.00 0,0 2113.2,2400.0 L 2113.2,2400.0 2052.7,2311.2 1996.8,2229.1 1945.2,2153.4 1897.9,2083.7 1854.5,2019.8 1814.9,1961.2 1779.0,1907.6 1746.6,1858.7 1717.6,1814.2 1692.0,1773.8 1669.5,1737.1 1650.2,1704.0 1634.0,1673.9 1620.9,1646.8 1610.8,1622.3 1603.7,1600.1 1599.8,1579.9 1598.9,1561.6 1601.2,1544.7 1606.7,1529.2 1615.6,1514.7 1627.8,1501.0 1643.6,1487.9 1663.1,1475.2 1686.4,1462.5 1713.7,1449.8 1745.3,1436.7 1781.2,1423.2 1821.8,1408.9 1867.2,1393.8 1917.8,1377.6 1973.7,1360.2 2035.4,1341.3 2103.1,1320.9 2177.1,1298.7 2257.8,1274.6 2345.6,1248.4 2440.8,1220.1 2543.8,1189.4  A 1089.000,1089.000 0.00 0,0 2411.9,904.7 L 2411.9,904.7 2321.9,963.4 2238.7,1017.7 2162.0,1067.8 2091.5,1114.0 2026.6,1156.4 1967.3,1195.4 1913.0,1231.2 1863.4,1264.2 1818.3,1294.5 1777.3,1322.5 1740.1,1348.4 1706.4,1372.5 1675.9,1395.2 1648.2,1416.6 1623.2,1437.2 1600.5,1457.3 1579.9,1477.0 1561.0,1496.8 1543.7,1517.0 1527.5,1537.9 1512.4,1559.8 1498.0,1583.1 1484.1,1608.1 1470.5,1635.1 1456.9,1664.5 1443.2,1696.7 1429.0,1732.0 1414.2,1770.7 1398.6,1813.2 1381.9,1860.0 1364.0,1911.3 1344.7,1967.6 1323.8,2029.2 1301.1,2096.5 1276.5,2170.0 1249.8,2250.0 1220.8,2336.9 1189.3,2431.1 1155.3,2533.0  Z" style="stroke-width: 1.0;  stroke: rgb(0,0,0); fill: rgb(116,196,118); opacity: 0.667;"/>
</g>
<g id="segdup0">
<path d="M 2589.000,1500.000 A 1089.000,1089.000 0.00 0,0 2551.6,1217.0 L 2551.6,1217.0 2447.8,1244.9 2351.9,1270.7 2263.5,1294.5 2182.1,1316.3 2107.5,1336.2 2039.2,1354.3 1976.8,1370.6 1920.1,1385.1 1868.7,1397.9 1822.3,1408.8 1780.6,1418.0 1743.3,1425.4 1710.1,1430.9 1680.8,1434.4 1655.0,1436.0 1632.6,1435.4 1613.4,1432.6 1597.1,1427.6 1583.6,1420.0 1572.5,1409.9 1563.9,1397.0 1557.4,1381.2 1553.0,1362.3 1550.6,1340.1 1549.9,1314.3 1551.0,1284.8 1553.6,1251.2 1557.7,1213.4 1563.3,1171.1 1570.3,1123.9 1578.6,1071.6 1588.2,1013.9 1599.1,950.4 1611.3,880.8 1624.8,804.7 1639.6,721.8 1655.7,631.6 1673.3,533.9 1692.2,428.1  A 1089.000,1089.000 0.00 0,0 1128.3,476.4 L 1128.3,476.4 1165.0,577.4 1198.9,670.8 1230.2,756.8 1259.0,836.0 1285.6,908.7 1310.1,975.3 1332.7,1036.1 1353.5,1091.4 1372.9,1141.6 1391.1,1187.1 1408.1,1228.0 1424.4,1264.9 1440.0,1297.8 1455.3,1327.2 1470.5,1353.2 1485.9,1376.2 1501.7,1396.4 1518.2,1414.0 1535.6,1429.2 1554.4,1442.3 1574.7,1453.6 1596.9,1463.0 1621.2,1471.0 1648.0,1477.6 1677.7,1483.0 1710.5,1487.4 1746.8,1490.8 1787.0,1493.5 1831.3,1495.6 1880.2,1497.1 1934.1,1498.2 1993.2,1498.9 2058.0,1499.4 2128.9,1499.7 2206.3,1499.9 2290.6,1500.0 2382.2,1500.0 2481.5,1500.0 2589.0,1500.0  Z" style="stroke-width: 1.0;  stroke: rgb(0,0,0); fill: rgb(251,106,74); opacity: 0.667;"/>
<path d="M 1692.235,428.101 A 1089.000,1089.000 0.00 0,0 1128.3,476.4 L 1128.3,476.4 1165.0,577.4 1198.9,670.8 1230.1,756.9 1258.8,836.1 1285.1,908.9 1309.0,975.7 1330.7,1036.8 1350.1,1092.6 1367.5,1143.6 1382.7,1190.1 1396.0,1232.5 1407.1,1271.1 1416.3,1306.4 1423.4,1338.8 1428.4,1368.5 1431.4,1396.0 1432.2,1421.6 1430.9,1445.7 1427.2,1468.6 1421.3,1490.7 1412.9,1512.3 1402.0,1533.8 1388.4,1555.5 1372.1,1577.8 1352.8,1601.0 1330.4,1625.4 1304.8,1651.3 1275.7,1679.2 1243.0,1709.2 1206.5,1741.8 1165.9,1777.1 1121.0,1815.7 1071.6,1857.6 1017.4,1903.4 958.2,1953.2 893.6,2007.3 823.4,2066.1 747.2,2129.8 664.8,2198.8  A 1089.000,1089.000 0.00 0,0 1128.3,2523.6 L 1128.3,2523.6 1165.0,2422.6 1198.9,2329.2 1230.1,2243.1 1258.9,2163.8 1285.3,2091.0 1309.6,2024.1 1331.7,1962.8 1352.0,1906.7 1370.4,1855.3 1387.2,1808.3 1402.5,1765.2 1416.3,1725.5 1428.9,1689.0 1440.4,1655.0 1450.9,1623.3 1460.5,1593.5 1469.3,1564.9 1477.5,1537.4 1485.1,1510.4 1492.4,1483.5 1499.3,1456.3 1506.0,1428.4 1512.7,1399.3 1519.4,1368.7 1526.3,1336.0 1533.4,1300.9 1540.8,1262.9 1548.7,1221.7 1557.2,1176.7 1566.3,1127.6 1576.1,1073.9 1586.7,1015.2 1598.3,951.1 1610.9,881.1 1624.7,804.8 1639.6,721.8 1655.7,631.6 1673.3,533.9 1692.2,428.1  Z" style="stroke-width: 1.0;  stroke: rgb(0,0,0); fill: rgb(251,106,74); opacity: 0.667;"/>
<path d="M 664.756,2198.777 A 1089.000,1089.000 0.00 0,0 1128.3,2523.6 L 1128.3,2523.6 1165.0,2422.6 1198.9,2329.2 1230.2,2243.2 1259.0,2164.0 1285.6,2091.3 1310.1,2024.7 1332.7,1963.9 1353.5,1908.6 1372.9,1858.4 1391.1,1812.9 1408.1,1772.0 1424.4,1735.1 1440.0,1702.2 1455.3,1672.8 1470.5,1646.8 1485.9,1623.8 1501.7,1603.6 1518.2,1586.0 1535.6,1570.8 1554.4,1557.7 1574.7,1546.4 1596.9,1537.0 1621.2,1529.0 1648.0,1522.4 1677.7,1517.0 1710.5,1512.6 1746.8,1509.2 1787.0,1506.5 1831.3,1504.4 1880.2,1502.9 1934.1,1501.8 1993.2,1501.1 2058.0,1500.6 2128.9,1500.3 2206.3,1500.1 2290.6,1500.0 2382.2,1500.0 2481.5,1500.0 2589.0,1500.0  A 1089.000,1089.000 0.00 0,0 2551.6,1217.0 L 2551.6,1217.0 2447.8,1244.9 2351.9,1270.7 2263.4,1294.6 2182.0,1316.5 2107.2,1336.7 2038.6,1355.3 1975.8,1372.5 1918.3,1388.3 1865.8,1402.9 1817.9,1416.5 1774.1,1429.2 1734.1,1441.3 1697.4,1452.7 1663.7,1463.8 1632.5,1474.7 1603.5,1485.6 1576.3,1496.6 1550.5,1507.9 1525.7,1519.8 1501.5,1532.4 1477.5,1545.9 1453.4,1560.5 1428.8,1576.5 1403.2,1594.0 1376.4,1613.3 1348.0,1634.5 1317.6,1658.0 1284.7,1683.9 1249.2,1712.4 1210.5,1743.9 1168.4,1778.4 1122.5,1816.4 1072.4,1858.0 1017.8,1903.6 958.3,1953.2 893.6,2007.3 823.4,2066.1 747.2,2129.8 664.8,2198.8  Z" style="stroke-width: 1.0;  stroke: rgb(0,0,0); fill: rgb(251,106,74); opacity: 0.667;"/>
</g>
<g id="plot0">
<g id="plot0-axis">
</g>
<path d="M 2658.770,1188.148 A1200.000,1200.000 0.000 0,1 2699.585,1531.544 L 2799.151,1534.162 A1299.600,1299.600 0.000 0,0 2754.948,1162.264 Z " style="stroke: none;   fill: rgb(150,150,150); " />
<path d="M 2799.151,1465.838 A1299.600,1299.600 0.000 0,1 2799.151,1534.162 L 2699.585,1531.544 A1200.000,1200.000 0.000 0,0 2699.585,1468.456 Z " style="stroke-width: 2.0; stroke: rgb(150,150,150);  fill: none; " />
<path d="M 2754.9,1162.3 A1299.6,1299.6 0.00 0,1 2799.2,1534.2" style="stroke-width: 2.0; stroke-opacity: 1.000000; stroke-width: 2.0; fill: none;" />
<path d="M 2799.151,1465.838 A1299.600,1299.600 0.000 0,1 2799.151,1534.162 L 2699.585,1531.544 A1200.000,1200.000 0.000 0,0 2699.585,1468.456 Z " style="stroke-width: 2.0; stroke: rgb(150,150,150);  fill: none; " />
<path d="M 2504.827,844.010 A1200.000,1200.000 0.000 0,1 2658.770,1188.148 L 2711.494,1173.958 A1254.600,1254.600 0.000 0,0 2550.546,814.162 Z " style="stroke: none;   fill: rgb(150,150,150); " />
<path d="M 2754.948,1162.264 A1299.600,1299.600 0.000 0,1 2770.963,1228.684 L 2673.558,1249.477 A1200.000,1200.000 0.000 0,0 2658.770,1188.148 Z " style="stroke-width: 2.0; stroke: rgb(150,150,150);  fill: none; " />
<path d="M 2692.685,1110.739 A1254.600,1254.600 0.000 0,1 2711.494,1173.958 L 2658.770,1188.148 A1200.000,1200.000 0.000 0,0 2640.779,1127.680 Z " style="stroke-width: 2.0; stroke: rgb(150,150,150);  fill: none; " />
<path d="M 2550.5,814.2 A1254.6,1254.6 0.00 0,1 2711.5,1174.0" style="stroke-width: 2.0; stroke-opacity: 1.000000; stroke-width: 2.0; fill: none;" />
<path d="M 2011.506,414.476 A1200.000,1200.000 0.000 0,1 2504.827,844.010 L 2576.772,797.041 A1285.920,1285.920 0.000 0,0 2048.130,336.753 Z " style="stroke: none;   fill: rgb(150,150,150); " />
<path d="M 2550.546,814.162 A1254.600,1254.600 0.000 0,1 2585.139,870.321 L 2537.914,897.725 A1200.000,1200.000 0.000 0,0 2504.827,844.010 Z " style="stroke-width: 2.0; stroke: rgb(150,150,150);  fill: none; " />
<path d="M 2538.340,741.423 A1285.920,1285.920 0.000 0,1 2576.772,797.041 L 2504.827,844.010 A1200.000,1200.000 0.000 0,0 2468.963,792.108 Z " style="stroke-width: 2.0; stroke: rgb(150,150,150);  fill: none; " />
<path d="M 2048.1,336.8 A1285.9,1285.9 0.00 0,1 2576.8,797.0" style="stroke-width: 2.0; stroke-opacity: 1.000000; stroke-width: 2.0; fill: none;" />
<path d="M 2048.130,336.753 A1285.920,1285.920 0.000 0,1 2108.506,367.167 L 2067.849,442.859 A1200.000,1200.000 0.000 0,0 2011.506,414.476 Z " style="stroke-width: 2.0; stroke: rgb(150,150,150);  fill: none; " />
<path d="M 1090.399,372.069 A1200.000,1200.000 0.000 0,1 1742.804,324.821 L 1765.191,216.469 A1310.640,1310.640 0.000 0,0 1052.634,268.074 Z " style="stroke: none;   fill: rgb(150,150,150); " />
<path d="M 1697.369,204.306 A1310.640,1310.640 0.000 0,1 1765.191,216.469 L 1742.804,324.821 A1200.000,1200.000 0.000 0,0 1680.707,313.684 Z " style="stroke-width: 2.0; stroke: rgb(150,150,150);  fill: none; " />
<path d="M 1052.6,268.1 A1310.6,1310.6 0.00 0,1 1765.2,216.5" style="stroke-width: 2.0; stroke-opacity: 1.000000; stroke-width: 2.0; fill: none;" />
<path d="M 1697.369,204.306 A1310.640,1310.640 0.000 0,1 1765.191,216.469 L 1742.804,324.821 A1200.000,1200.000 0.000 0,0 1680.707,313.684 Z " style="stroke-width: 2.0; stroke: rgb(150,150,150);  fill: none; " />
<path d="M 345.429,1172.943 A1200.000,1200.000 0.000 0,1 1090.399,372.069 L 1061.973,293.791 A1283.280,1283.280 0.000 0,0 265.302,1150.246 Z " style="stroke: none;   fill: rgb(150,150,150); " />
<path d="M 1052.634,268.074 A1310.640,1310.640 0.000 0,1 1117.996,246.266 L 1150.244,352.102 A1200.000,1200.000 0.000 0,0 1090.399,372.069 Z " style="stroke-width: 2.0; stroke: rgb(150,150,150);  fill: none; " />
<path d="M 999.186,318.478 A1283.280,1283.280 0.000 0,1 1061.973,293.791 L 1090.399,372.069 A1200.000,1200.000 0.000 0,0 1031.687,395.155 Z " style="stroke-width: 2.0; stroke: rgb(150,150,150);  fill: none; " />
<path d="M 265.3,1150.2 A1283.3,1283.3 0.00 0,1 1062.0,293.8" style="stroke-width: 2.0; stroke-opacity: 1.000000; stroke-width: 2.0; fill: none;" />
<path d="M 411.138,2004.361 A1200.000,1200.000 0.000 0,1 345.429,1172.943 L 295.898,1158.913 A1251.480,1251.480 0.000 0,0 364.426,2025.998 Z " style="stroke: none;   fill: rgb(150,150,150); " />
<path d="M 265.302,1150.246 A1283.280,1283.280 0.000 0,1 285.389,1085.840 L 364.213,1112.717 A1200.000,1200.000 0.000 0,0 345.429,1172.943 Z " style="stroke-width: 2.0; stroke: rgb(150,150,150);  fill: none; " />
<path d="M 279.636,1222.665 A1251.480,1251.480 0.000 0,1 295.898,1158.913 L 345.429,1172.943 A1200.000,1200.000 0.000 0,0 329.836,1234.073 Z " style="stroke-width: 2.0; stroke: rgb(150,150,150);  fill: none; " />
<path d="M 364.4,2026.0 A1251.5,1251.5 0.00 0,1 295.9,1158.9" style="stroke-width: 2.0; stroke-opacity: 1.000000; stroke-width: 2.0; fill: none;" />
<path d="M 364.426,2025.998 A1251.480,1251.480 0.000 0,1 338.351,1965.591 L 386.136,1946.439 A1200.000,1200.000 0.000 0,0 411.138,2004.361 Z " style="stroke-width: 2.0; stroke: rgb(150,150,150);  fill: none; " />
<path d="M 1090.399,2627.931 A1200.000,1200.000 0.000 0,1 559.699,2245.542 L 486.637,2303.471 A1293.240,1293.240 0.000 0,0 1058.573,2715.571 Z " style="stroke: none;   fill: rgb(150,150,150); " />
<path d="M 530.264,2355.617 A1293.240,1293.240 0.000 0,1 486.637,2303.471 L 559.699,2245.542 A1200.000,1200.000 0.000 0,0 600.180,2293.929 Z " style="stroke-width: 2.0; stroke: rgb(150,150,150);  fill: none; " />
<path d="M 1058.6,2715.6 A1293.2,1293.2 0.00 0,1 486.6,2303.5" style="stroke-width: 2.0; stroke-opacity: 1.000000; stroke-width: 2.0; fill: none;" />
<path d="M 530.264,2355.617 A1293.240,1293.240 0.000 0,1 486.637,2303.471 L 559.699,2245.542 A1200.000,1200.000 0.000 0,0 600.180,2293.929 Z " style="stroke-width: 2.0; stroke: rgb(150,150,150);  fill: none; " />
<path d="M 2175.674,2491.698 A1200.000,1200.000 0.000 0,1 1090.399,2627.931 L 1054.887,2725.722 A1304.040,1304.040 0.000 0,0 2234.255,2577.678 Z " style="stroke: none;   fill: rgb(150,150,150); " />
<path d="M 1058.573,2715.571 A1293.240,1293.240 0.000 0,1 995.299,2690.692 L 1031.687,2604.845 A1200.000,1200.000 0.000 0,0 1090.399,2627.931 Z " style="stroke-width: 2.0; stroke: rgb(150,150,150);  fill: none; " />
<path d="M 1119.920,2747.421 A1304.040,1304.040 0.000 0,1 1054.887,2725.722 L 1090.399,2627.931 A1200.000,1200.000 0.000 0,0 1150.244,2647.898 Z " style="stroke-width: 2.0; stroke: rgb(150,150,150);  fill: none; " />
<path d="M 2234.3,2577.7 A1304.0,1304.0 0.00 0,1 1054.9,2725.7" style="stroke-width: 2.0; stroke-opacity: 1.000000; stroke-width: 2.0; fill: none;" />
<path d="M 2658.770,1811.852 A1200.000,1200.000 0.000 0,1 2175.674,2491.698 L 2203.511,2532.556 A1249.440,1249.440 0.000 0,0 2706.511,1824.701 Z " style="stroke: none;   fill: rgb(150,150,150); " />
<path d="M 2234.255,2577.678 A1304.040,1304.040 0.000 0,1 2176.603,2614.778 L 2122.622,2525.837 A1200.000,1200.000 0.000 0,0 2175.674,2491.698 Z " style="stroke-width: 2.0; stroke: rgb(150,150,150);  fill: none; " />
<path d="M 2256.805,2494.156 A1249.440,1249.440 0.000 0,1 2203.511,2532.556 L 2175.674,2491.698 A1200.000,1200.000 0.000 0,0 2226.858,2454.818 Z " style="stroke-width: 2.0; stroke: rgb(150,150,150);  fill: none; " />
<path d="M 2706.5,1824.7 A1249.4,1249.4 0.00 0,1 2203.5,2532.6" style="stroke-width: 2.0; stroke-opacity: 1.000000; stroke-width: 2.0; fill: none;" />
<path d="M 2706.511,1824.701 A1249.440,1249.440 0.000 0,1 2687.780,1887.660 L 2640.779,1872.320 A1200.000,1200.000 0.000 0,0 2658.770,1811.852 Z " style="stroke-width: 2.0; stroke: rgb(150,150,150);  fill: none; " />
</g>
</svg>
