<?xml version="1.0" standalone="no"?>
<!DOCTYPE svg PUBLIC "-//W3C//DTD SVG 1.1//EN" "http://www.w3.org/Graphics/SVG/1.1/DTD/svg11.dtd">
<svg width="3000px" height="3000px" version="1.1" xmlns="http://www.w3.org/2000/svg" xmlns:xlink="http://www.w3.org/1999/xlink">
<g id="ideograms">
<g id="highlight0">
<path d="M 349.251,1159.741 A1200.000,1200.000 0.000 0,1 1519.999,300.167 L 1521.665,200.181 A1300.000,1300.000 0.000 0,0 253.355,1131.386 Z " style="stroke: none;   fill: rgb(116,196,118); " />
</g>
<path d="M 445.147,1188.096 A1100.000,1100.000 0.000 0,1 1518.332,400.153 L 1519.999,300.167 A1200.000,1200.000 0.000 0,0 349.251,1159.741 Z " style="stroke-width: 1.0; stroke: rgb(0,0,0);  fill: rgb(0,0,0); " />
<text x="703.6" y="476.3" style="fill: rgb(0,0,0); font-size: 130.0px; text-anchor: end" transform="rotate(-36.3,703.6,476.3)">X</text>
<path d="M 1299.466,418.434 A1100.000,1100.000 0.000 0,1 1518.332,400.153 L 1519.999,300.167 A1200.000,1200.000 0.000 0,0 1281.235,320.109 Z " style="stroke-width: 2.0; stroke: rgb(0,0,0);  fill: rgb(251,106,74); " />
<path d="M 1088.594,479.831 A1100.000,1100.000 0.000 0,1 1317.519,415.242 L 1300.929,316.627 A1200.000,1200.000 0.000 0,0 1051.193,387.088 Z " style="stroke-width: 2.0; stroke: rgb(0,0,0);  fill: rgb(116,196,118); " />
<path d="M 988.805,525.998 A1100.000,1100.000 0.000 0,1 1105.653,473.116 L 1069.803,379.763 A1200.000,1200.000 0.000 0,0 942.332,437.453 Z " style="stroke-width: 2.0; stroke: rgb(0,0,0);  fill: rgb(107,174,214); " />
<path d="M 750.212,695.129 A1100.000,1100.000 0.000 0,1 1005.108,517.614 L 960.118,428.307 A1200.000,1200.000 0.000 0,0 682.049,621.959 Z " style="stroke-width: 2.0; stroke: rgb(0,0,0);  fill: rgb(150,150,150); " />
<path d="M 564.619,921.154 A1100.000,1100.000 0.000 0,1 763.729,682.745 L 696.796,608.449 A1200.000,1200.000 0.000 0,0 479.585,868.531 Z " style="stroke-width: 2.0; stroke: rgb(0,0,0);  fill: rgb(0,0,0); " />
<path d="M 445.147,1188.096 A1100.000,1100.000 0.000 0,1 574.396,905.646 L 490.250,851.613 A1200.000,1200.000 0.000 0,0 349.251,1159.741 Z " style="stroke-width: 2.0; stroke: rgb(0,0,0);  fill: rgb(253,141,60); " />
<g id="highlight0">
</g>
<path d="M 445.147,1188.096 A1100.000,1100.000 0.000 0,1 1518.332,400.153 L 1519.999,300.167 A1200.000,1200.000 0.000 0,0 349.251,1159.741 Z " style="stroke-width: 1.0; stroke: rgb(0,0,0);  fill: none; " />
<g id="highlight0">
<path d="M 1748.190,2674.054 A1200.000,1200.000 0.000 0,1 329.140,1237.155 L 231.569,1215.251 A1300.000,1300.000 0.000 0,0 1768.872,2771.891 Z " style="stroke: none;   fill: rgb(116,196,118); " />
</g>
<path d="M 1727.507,2576.216 A1100.000,1100.000 0.000 0,1 426.712,1259.059 L 329.140,1237.155 A1200.000,1200.000 0.000 0,0 1748.190,2674.054 Z " style="stroke-width: 1.0; stroke: rgb(0,0,0);  fill: rgb(0,0,0); " />
<text x="537.9" y="2504.6" style="fill: rgb(0,0,0); font-size: 130.0px; text-anchor: end" transform="rotate(405.4,537.9,2504.6)">Y</text>
<path d="M 411.676,1659.845 A1100.000,1100.000 0.000 0,1 426.712,1259.059 L 329.140,1237.155 A1200.000,1200.000 0.000 0,0 312.737,1674.376 Z " style="stroke-width: 2.0; stroke: rgb(0,0,0);  fill: rgb(251,106,74); " />
<path d="M 692.012,2246.428 A1100.000,1100.000 0.000 0,1 409.163,1641.685 L 309.996,1654.566 A1200.000,1200.000 0.000 0,0 618.558,2314.285 Z " style="stroke-width: 2.0; stroke: rgb(0,0,0);  fill: rgb(116,196,118); " />
<path d="M 798.410,2347.214 A1100.000,1100.000 0.000 0,1 679.685,2232.859 L 605.110,2299.483 A1200.000,1200.000 0.000 0,0 734.629,2424.233 Z " style="stroke-width: 2.0; stroke: rgb(0,0,0);  fill: rgb(107,174,214); " />
<path d="M 1080.107,2516.705 A1100.000,1100.000 0.000 0,1 784.388,2335.404 L 719.332,2411.350 A1200.000,1200.000 0.000 0,0 1041.935,2609.133 Z " style="stroke-width: 2.0; stroke: rgb(0,0,0);  fill: rgb(150,150,150); " />
<path d="M 1399.310,2595.382 A1100.000,1100.000 0.000 0,1 1063.221,2509.566 L 1023.514,2601.345 A1200.000,1200.000 0.000 0,0 1390.157,2694.962 Z " style="stroke-width: 2.0; stroke: rgb(0,0,0);  fill: rgb(0,0,0); " />
<path d="M 1727.507,2576.216 A1100.000,1100.000 0.000 0,1 1381.069,2593.552 L 1370.257,2692.966 A1200.000,1200.000 0.000 0,0 1748.190,2674.054 Z " style="stroke-width: 2.0; stroke: rgb(0,0,0);  fill: rgb(253,141,60); " />
<g id="highlight0">
</g>
<path d="M 1727.507,2576.216 A1100.000,1100.000 0.000 0,1 426.712,1259.059 L 329.140,1237.155 A1200.000,1200.000 0.000 0,0 1748.190,2674.054 Z " style="stroke-width: 1.0; stroke: rgb(0,0,0);  fill: none; " />
<g id="highlight0">
<path d="M 2509.750,851.613 A1200.000,1200.000 0.000 0,1 1825.849,2654.912 L 1853.003,2751.155 A1300.000,1300.000 0.000 0,0 2593.896,797.581 Z " style="stroke: none;   fill: rgb(116,196,118); " />
</g>
<path d="M 2425.604,905.646 A1100.000,1100.000 0.000 0,1 1798.695,2558.670 L 1825.849,2654.912 A1200.000,1200.000 0.000 0,0 2509.750,851.613 Z " style="stroke-width: 1.0; stroke: rgb(0,0,0);  fill: rgb(0,0,0); " />
<text x="2786.4" y="2029.3" style="fill: rgb(0,0,0); font-size: 130.0px; text-anchor: start" transform="rotate(-69.2,2786.4,2029.3)">Z</text>
<path d="M 2295.436,2259.790 A1100.000,1100.000 0.000 0,1 1798.695,2558.670 L 1825.849,2654.912 A1200.000,1200.000 0.000 0,0 2367.749,2328.862 Z " style="stroke-width: 2.0; stroke: rgb(0,0,0);  fill: rgb(251,106,74); " />
<path d="M 2367.313,2176.585 A1100.000,1100.000 0.000 0,1 2282.663,2272.941 L 2353.815,2343.208 A1200.000,1200.000 0.000 0,0 2446.160,2238.093 Z " style="stroke-width: 2.0; stroke: rgb(0,0,0);  fill: rgb(116,196,118); " />
<path d="M 2476.123,2007.133 A1100.000,1100.000 0.000 0,1 2355.917,2190.946 L 2433.728,2253.759 A1200.000,1200.000 0.000 0,0 2564.862,2053.236 Z " style="stroke-width: 2.0; stroke: rgb(0,0,0);  fill: rgb(107,174,214); " />
<path d="M 2590.837,1641.685 A1100.000,1100.000 0.000 0,1 2467.536,2023.330 L 2555.494,2070.905 A1200.000,1200.000 0.000 0,0 2690.004,1654.566 Z " style="stroke-width: 2.0; stroke: rgb(0,0,0);  fill: rgb(150,150,150); " />
<path d="M 2573.288,1259.059 A1100.000,1100.000 0.000 0,1 2588.324,1659.845 L 2687.263,1674.376 A1200.000,1200.000 0.000 0,0 2670.860,1237.155 Z " style="stroke-width: 2.0; stroke: rgb(0,0,0);  fill: rgb(0,0,0); " />
<path d="M 2425.604,905.646 A1100.000,1100.000 0.000 0,1 2577.154,1276.979 L 2675.078,1256.704 A1200.000,1200.000 0.000 0,0 2509.750,851.613 Z " style="stroke-width: 2.0; stroke: rgb(0,0,0);  fill: rgb(253,141,60); " />
<g id="highlight0">
</g>
<path d="M 2425.604,905.646 A1100.000,1100.000 0.000 0,1 1798.695,2558.670 L 1825.849,2654.912 A1200.000,1200.000 0.000 0,0 2509.750,851.613 Z " style="stroke-width: 1.0; stroke: rgb(0,0,0);  fill: none; " />
<g id="highlight0">
<path d="M 1599.882,304.164 A1200.000,1200.000 0.000 0,1 2464.314,785.788 L 2544.674,726.271 A1300.000,1300.000 0.000 0,0 1608.205,204.511 Z " style="stroke: none;   fill: rgb(116,196,118); " />
</g>
<path d="M 1591.558,403.817 A1100.000,1100.000 0.000 0,1 2383.955,845.306 L 2464.314,785.788 A1200.000,1200.000 0.000 0,0 1599.882,304.164 Z " style="stroke-width: 1.0; stroke: rgb(0,0,0);  fill: rgb(0,0,0); " />
<text x="2162.7" y="385.7" style="fill: rgb(0,0,0); font-size: 130.0px; text-anchor: start" transform="rotate(389.1,2162.7,385.7)">A</text>
<path d="M 2326.394,774.002 A1100.000,1100.000 0.000 0,1 2383.955,845.306 L 2464.314,785.788 A1200.000,1200.000 0.000 0,0 2401.521,708.002 Z " style="stroke-width: 2.0; stroke: rgb(0,0,0);  fill: rgb(251,106,74); " />
<path d="M 2249.788,695.129 A1100.000,1100.000 0.000 0,1 2338.378,787.875 L 2414.594,723.136 A1200.000,1200.000 0.000 0,0 2317.951,621.959 Z " style="stroke-width: 2.0; stroke: rgb(0,0,0);  fill: rgb(116,196,118); " />
<path d="M 2222.548,670.588 A1100.000,1100.000 0.000 0,1 2263.098,707.736 L 2332.470,635.712 A1200.000,1200.000 0.000 0,0 2288.235,595.187 Z " style="stroke-width: 2.0; stroke: rgb(0,0,0);  fill: rgb(107,174,214); " />
<path d="M 2136.138,602.599 A1100.000,1100.000 0.000 0,1 2236.271,682.745 L 2303.204,608.449 A1200.000,1200.000 0.000 0,0 2193.969,521.017 Z " style="stroke-width: 2.0; stroke: rgb(0,0,0);  fill: rgb(150,150,150); " />
<path d="M 1961.878,501.667 A1100.000,1100.000 0.000 0,1 2151.005,613.325 L 2210.187,532.718 A1200.000,1200.000 0.000 0,0 2003.867,410.909 Z " style="stroke-width: 2.0; stroke: rgb(0,0,0);  fill: rgb(0,0,0); " />
<path d="M 1591.558,403.817 A1100.000,1100.000 0.000 0,1 1978.452,509.503 L 2021.947,419.458 A1200.000,1200.000 0.000 0,0 1599.882,304.164 Z " style="stroke-width: 2.0; stroke: rgb(0,0,0);  fill: rgb(253,141,60); " />
<g id="highlight0">
</g>
<path d="M 1591.558,403.817 A1100.000,1100.000 0.000 0,1 2383.955,845.306 L 2464.314,785.788 A1200.000,1200.000 0.000 0,0 1599.882,304.164 Z " style="stroke-width: 1.0; stroke: rgb(0,0,0);  fill: none; " />
</g>
<g id="segdup2">
<path d="M 1092.708,490.033 A 1089.000,1089.000 0.00 0,0 1010.1,527.4 L 1010.1,527.4 1038.1,586.1 1062.3,642.7 1083.0,697.5 1100.6,750.5 1115.2,801.9 1127.2,851.9 1136.9,900.4 1144.3,947.7 1149.9,993.8 1153.6,1038.9 1155.9,1083.0 1156.7,1126.3 1156.2,1168.8 1154.5,1210.7 1151.8,1251.9 1148.1,1292.7 1143.5,1333.1 1138.1,1373.1 1131.7,1412.9 1124.6,1452.4 1116.5,1491.9 1107.6,1531.3 1097.8,1570.7 1086.9,1610.2 1075.0,1649.8 1061.9,1689.6 1047.4,1729.6 1031.5,1769.8 1013.9,1810.4 994.6,1851.2 973.2,1892.5 949.6,1934.2 923.6,1976.2 894.8,2018.8 863.1,2061.8 828.1,2105.3 789.4,2149.4 746.9,2193.9 700.1,2239.0  A 1089.000,1089.000 0.00 0,0 791.5,2327.0 L 791.5,2327.0 835.8,2273.5 875.7,2221.1 911.8,2170.1 944.4,2120.1 973.7,2071.4 1000.2,2023.6 1023.9,1976.9 1045.4,1931.1 1064.7,1886.2 1082.0,1842.1 1097.7,1798.8 1111.9,1756.0 1124.8,1713.9 1136.5,1672.3 1147.1,1631.1 1156.8,1590.2 1165.6,1549.5 1173.6,1509.0 1181.0,1468.5 1187.6,1428.0 1193.6,1387.3 1198.9,1346.3 1203.5,1304.9 1207.4,1263.1 1210.5,1220.7 1212.7,1177.5 1214.0,1133.4 1214.2,1088.4 1213.2,1042.3 1210.8,995.0 1206.8,946.3 1201.1,896.1 1193.5,844.2 1183.7,790.5 1171.5,734.9 1156.6,677.2 1138.7,617.3 1117.5,554.9 1092.7,490.0  Z" style="stroke-width: 1.0;  stroke: rgb(0,0,0); fill: rgb(107,174,214); opacity: 0.667;"/>
<path d="M 700.092,2238.964 A 1089.000,1089.000 0.00 0,0 791.5,2327.0 L 791.5,2327.0 831.7,2282.3 871.6,2241.7 911.3,2205.0 950.7,2171.8 990.0,2141.8 1029.1,2114.8 1068.0,2090.6 1106.7,2068.8 1145.2,2049.3 1183.6,2031.9 1221.8,2016.4 1259.9,2002.6 1298.0,1990.3 1335.9,1979.5 1373.8,1970.1 1411.7,1961.9 1449.5,1954.8 1487.4,1948.9 1525.3,1944.0 1563.4,1940.2 1601.5,1937.4 1639.8,1935.7 1678.3,1935.1 1717.1,1935.6 1756.1,1937.4 1795.4,1940.4 1835.1,1944.9 1875.2,1950.8 1915.8,1958.4 1956.9,1967.9 1998.5,1979.3 2040.8,1993.0 2083.7,2009.0 2127.3,2027.7 2171.8,2049.2 2217.1,2073.9 2263.3,2102.1 2310.4,2133.9 2358.6,2169.8  A 1089.000,1089.000 0.00 0,0 2457.9,2018.1 L 2457.9,2018.1 2399.1,1987.8 2342.3,1961.4 2287.3,1938.6 2234.0,1919.0 2182.3,1902.3 2132.1,1888.3 2083.2,1876.7 2035.5,1867.3 1989.0,1859.8 1943.6,1854.1 1899.0,1849.9 1855.4,1847.2 1812.4,1845.7 1770.1,1845.4 1728.4,1846.1 1687.2,1847.8 1646.3,1850.4 1605.8,1853.8 1565.4,1858.1 1525.2,1863.1 1485.1,1869.0 1444.9,1875.7 1404.7,1883.3 1364.3,1891.9 1323.7,1901.5 1282.8,1912.3 1241.6,1924.3 1199.9,1937.8 1157.8,1952.8 1115.2,1969.6 1072.0,1988.3 1028.2,2009.3 983.7,2032.6 938.4,2058.6 892.5,2087.6 845.7,2119.8 798.0,2155.5 749.5,2195.1 700.1,2239.0  Z" style="stroke-width: 1.0;  stroke: rgb(0,0,0); fill: rgb(107,174,214); opacity: 0.667;"/>
<path d="M 2358.640,2169.820 A 1089.000,1089.000 0.00 0,0 2457.9,2018.1 L 2457.9,2018.1 2410.5,1991.0 2367.1,1963.3 2327.3,1935.1 2291.0,1906.3 2257.8,1877.0 2227.5,1847.3 2200.0,1817.1 2174.9,1786.6 2152.1,1755.7 2131.5,1724.5 2112.8,1693.0 2095.9,1661.2 2080.8,1629.1 2067.2,1596.8 2055.1,1564.3 2044.4,1531.5 2035.1,1498.5 2027.1,1465.3 2020.3,1432.0 2014.8,1398.4 2010.5,1364.5 2007.6,1330.5 2005.9,1296.3 2005.5,1261.8 2006.6,1227.1 2009.1,1192.2 2013.3,1157.0 2019.1,1121.4 2026.7,1085.6 2036.3,1049.4 2048.1,1012.9 2062.1,976.0 2078.6,938.6 2097.8,900.8 2119.9,862.4 2145.1,823.5 2173.7,784.1 2206.0,744.0 2242.3,703.2  A 1089.000,1089.000 0.00 0,0 2228.9,690.9 L 2228.9,690.9 2191.2,734.8 2157.5,777.9 2127.6,820.4 2101.1,862.2 2077.8,903.4 2057.4,944.1 2039.7,984.3 2024.5,1024.0 2011.5,1063.3 2000.6,1102.2 1991.6,1140.8 1984.3,1179.0 1978.7,1216.9 1974.5,1254.6 1971.7,1292.1 1970.2,1329.3 1970.0,1366.4 1970.9,1403.3 1973.0,1440.0 1976.2,1476.7 1980.5,1513.3 1986.1,1549.8 1992.8,1586.2 2000.7,1622.6 2010.0,1659.0 2020.6,1695.4 2032.8,1731.8 2046.6,1768.1 2062.2,1804.5 2079.8,1840.9 2099.4,1877.4 2121.3,1913.8 2145.7,1950.3 2172.9,1986.8 2203.0,2023.4 2236.3,2060.0 2273.2,2096.6 2313.9,2133.2 2358.6,2169.8  Z" style="stroke-width: 1.0;  stroke: rgb(0,0,0); fill: rgb(107,174,214); opacity: 0.667;"/>
<path d="M 2242.291,703.178 A 1089.000,1089.000 0.00 0,0 2228.9,690.9 L 2228.9,690.9 2193.6,728.3 2158.8,761.9 2124.5,791.8 2090.5,818.4 2056.9,841.9 2023.6,862.5 1990.6,880.4 1958.0,895.8 1925.6,908.8 1893.5,919.7 1861.6,928.6 1830.0,935.5 1798.5,940.7 1767.3,944.1 1736.4,946.0 1705.6,946.4 1675.0,945.3 1644.7,942.7 1614.6,938.8 1584.8,933.6 1555.1,926.9 1525.8,918.9 1496.7,909.4 1467.9,898.6 1439.5,886.2 1411.4,872.2 1383.6,856.6 1356.3,839.2 1329.4,820.0 1302.9,798.7 1277.0,775.4 1251.6,749.7 1226.7,721.6 1202.5,690.9 1179.0,657.3 1156.2,620.6 1134.2,580.7 1113.0,537.3 1092.7,490.0  A 1089.000,1089.000 0.00 0,0 1010.1,527.4 L 1010.1,527.4 1035.0,574.1 1060.5,617.0 1086.7,656.2 1113.5,692.0 1140.7,724.7 1168.5,754.5 1196.8,781.7 1225.5,806.3 1254.5,828.7 1284.0,848.9 1313.7,867.1 1343.8,883.4 1374.2,898.0 1404.8,911.0 1435.7,922.4 1466.9,932.4 1498.2,941.0 1529.8,948.2 1561.6,954.1 1593.5,958.6 1625.6,961.9 1658.0,963.8 1690.5,964.3 1723.2,963.4 1756.0,961.1 1789.1,957.2 1822.3,951.7 1855.8,944.4 1889.5,935.2 1923.4,924.0 1957.5,910.7 1991.9,895.1 2026.6,876.9 2061.7,856.1 2097.0,832.3 2132.7,805.3 2168.8,775.0 2205.3,741.1 2242.3,703.2  Z" style="stroke-width: 1.0;  stroke: rgb(0,0,0); fill: rgb(107,174,214); opacity: 0.667;"/>
</g>
<g id="segdup3">
<path d="M 993.916,535.738 A 1089.000,1089.000 0.00 0,0 771.1,690.9 L 771.1,690.9 811.7,738.0 848.1,784.2 880.7,829.7 909.8,874.5 935.7,918.6 958.7,962.1 978.9,1004.9 996.8,1047.2 1012.5,1089.1 1026.1,1130.4 1038.0,1171.3 1048.2,1211.9 1056.9,1252.1 1064.2,1292.0 1070.2,1331.7 1075.2,1371.2 1079.0,1410.6 1081.8,1449.9 1083.5,1489.1 1084.4,1528.3 1084.2,1567.5 1083.1,1606.9 1080.9,1646.4 1077.6,1686.0 1073.2,1725.9 1067.6,1766.1 1060.6,1806.7 1052.1,1847.6 1041.9,1889.0 1030.0,1930.9 1016.1,1973.3 1000.0,2016.3 981.5,2060.0 960.4,2104.4 936.4,2149.5 909.2,2195.5 878.5,2242.3 844.0,2290.0 805.4,2338.7  A 1089.000,1089.000 0.00 0,0 1067.6,2499.5 L 1067.6,2499.5 1096.0,2430.9 1120.7,2365.1 1142.2,2302.1 1160.7,2241.5 1176.6,2183.3 1190.0,2127.3 1201.3,2073.4 1210.7,2021.4 1218.4,1971.1 1224.7,1922.3 1229.7,1875.1 1233.5,1829.1 1236.3,1784.2 1238.3,1740.3 1239.6,1697.3 1240.2,1654.9 1240.2,1613.1 1239.6,1571.6 1238.6,1530.4 1237.0,1489.3 1235.0,1448.1 1232.4,1406.7 1229.3,1365.0 1225.5,1322.8 1221.1,1280.0 1215.8,1236.3 1209.6,1191.8 1202.3,1146.2 1193.8,1099.5 1183.9,1051.4 1172.5,1001.8 1159.2,950.6 1143.9,897.7 1126.3,842.8 1106.1,786.0 1083.1,727.0 1057.0,665.7 1027.4,602.0 993.9,535.7  Z" style="stroke-width: 1.0;  stroke: rgb(0,0,0); fill: rgb(150,150,150); opacity: 0.667;"/>
<path d="M 805.426,2338.742 A 1089.000,1089.000 0.00 0,0 1067.6,2499.5 L 1067.6,2499.5 1091.8,2446.9 1117.0,2398.3 1143.1,2353.5 1170.2,2312.0 1198.0,2273.6 1226.5,2238.2 1255.7,2205.4 1285.5,2175.0 1315.8,2146.8 1346.6,2120.7 1377.9,2096.5 1409.7,2074.0 1441.8,2053.0 1474.3,2033.6 1507.2,2015.5 1540.4,1998.6 1574.0,1983.0 1608.0,1968.4 1642.3,1955.0 1677.0,1942.7 1712.0,1931.4 1747.5,1921.3 1783.4,1912.2 1819.9,1904.3 1856.8,1897.6 1894.3,1892.1 1932.5,1888.1 1971.3,1885.5 2010.9,1884.5 2051.3,1885.3 2092.5,1888.0 2134.8,1892.8 2178.2,1899.8 2222.7,1909.3 2268.4,1921.4 2315.6,1936.5 2364.2,1954.8 2414.4,1976.6 2466.4,2002.1  A 1089.000,1089.000 0.00 0,0 2577.4,1658.2 L 2577.4,1658.2 2507.0,1649.2 2440.0,1642.9 2376.2,1639.3 2315.4,1638.0 2257.3,1638.8 2201.8,1641.4 2148.6,1645.6 2097.5,1651.3 2048.4,1658.3 2001.1,1666.4 1955.4,1675.5 1911.0,1685.5 1867.9,1696.2 1825.9,1707.6 1784.8,1719.6 1744.5,1732.2 1704.9,1745.4 1665.7,1759.1 1627.0,1773.3 1588.5,1788.0 1550.3,1803.4 1512.0,1819.4 1473.8,1836.2 1435.4,1853.8 1396.8,1872.4 1358.0,1892.0 1318.8,1912.9 1279.2,1935.2 1239.1,1959.1 1198.5,1984.7 1157.3,2012.4 1115.6,2042.3 1073.2,2074.8 1030.2,2110.0 986.6,2148.3 942.3,2190.0 897.3,2235.4 851.7,2284.8 805.4,2338.7  Z" style="stroke-width: 1.0;  stroke: rgb(0,0,0); fill: rgb(150,150,150); opacity: 0.667;"/>
<path d="M 2466.362,2002.061 A 1089.000,1089.000 0.00 0,0 2577.4,1658.2 L 2577.4,1658.2 2528.4,1649.9 2482.8,1640.0 2440.4,1628.6 2401.0,1615.8 2364.4,1601.7 2330.4,1586.3 2298.8,1569.8 2269.6,1552.2 2242.5,1533.7 2217.4,1514.2 2194.2,1493.8 2172.7,1472.6 2152.9,1450.7 2134.8,1428.1 2118.1,1404.8 2102.9,1380.8 2089.1,1356.3 2076.8,1331.3 2065.7,1305.7 2056.1,1279.5 2047.8,1252.9 2040.9,1225.8 2035.4,1198.3 2031.4,1170.2 2028.9,1141.7 2028.0,1112.7 2028.7,1083.2 2031.2,1053.1 2035.6,1022.6 2042.0,991.4 2050.5,959.7 2061.3,927.3 2074.5,894.2 2090.3,860.5 2108.9,825.9 2130.5,790.6 2155.3,754.3 2183.5,717.1 2215.3,678.9  A 1089.000,1089.000 0.00 0,0 2144.5,622.2 L 2144.5,622.2 2112.2,668.4 2083.9,713.4 2059.1,757.4 2037.8,800.4 2019.5,842.5 2004.0,883.9 1991.2,924.4 1980.7,964.2 1972.5,1003.4 1966.4,1042.0 1962.1,1080.1 1959.5,1117.6 1958.6,1154.7 1959.1,1191.4 1961.1,1227.6 1964.4,1263.5 1968.9,1299.1 1974.6,1334.4 1981.6,1369.4 1989.7,1404.1 1998.9,1438.5 2009.4,1472.7 2021.1,1506.6 2034.0,1540.3 2048.3,1573.6 2064.0,1606.8 2081.3,1639.6 2100.2,1672.2 2120.9,1704.4 2143.5,1736.3 2168.2,1767.8 2195.1,1798.9 2224.6,1829.6 2256.7,1859.8 2291.8,1889.5 2330.0,1918.6 2371.6,1947.1 2417.0,1974.9 2466.4,2002.1  Z" style="stroke-width: 1.0;  stroke: rgb(0,0,0); fill: rgb(150,150,150); opacity: 0.667;"/>
<path d="M 2215.323,678.882 A 1089.000,1089.000 0.00 0,0 2144.5,622.2 L 2144.5,622.2 2113.1,662.9 2081.9,699.8 2050.7,733.0 2019.5,762.9 1988.4,789.6 1957.3,813.4 1926.3,834.5 1895.4,853.1 1864.5,869.3 1833.6,883.3 1802.7,895.3 1771.9,905.4 1741.2,913.7 1710.5,920.2 1679.9,925.2 1649.3,928.6 1618.8,930.6 1588.4,931.1 1558.0,930.2 1527.8,927.9 1497.6,924.3 1467.6,919.2 1437.8,912.7 1408.0,904.8 1378.5,895.3 1349.1,884.2 1320.0,871.4 1291.0,856.9 1262.3,840.4 1233.9,821.9 1205.7,801.3 1177.9,778.3 1150.4,752.8 1123.2,724.6 1096.5,693.5 1070.1,659.3 1044.3,621.8 1018.8,580.7 993.9,535.7  A 1089.000,1089.000 0.00 0,0 771.1,690.9 L 771.1,690.9 810.2,732.3 848.9,769.6 887.4,803.2 925.6,833.3 963.6,860.1 1001.3,884.0 1038.9,905.2 1076.2,923.8 1113.3,940.2 1150.3,954.5 1187.1,966.8 1223.7,977.4 1260.3,986.2 1296.7,993.6 1333.1,999.5 1369.4,1004.1 1405.6,1007.4 1441.7,1009.5 1477.9,1010.3 1514.0,1010.0 1550.1,1008.6 1586.2,1005.9 1622.4,1002.0 1658.6,996.8 1694.8,990.3 1731.1,982.3 1767.5,972.8 1804.0,961.7 1840.6,948.7 1877.3,933.9 1914.2,916.9 1951.2,897.6 1988.3,875.8 2025.7,851.3 2063.2,823.8 2100.9,793.1 2138.8,758.9 2176.9,720.9 2215.3,678.9  Z" style="stroke-width: 1.0;  stroke: rgb(0,0,0); fill: rgb(150,150,150); opacity: 0.667;"/>
</g>
</svg>
