<?xml version="1.0" standalone="no"?>
<!DOCTYPE svg PUBLIC "-//W3C//DTD SVG 1.1//EN" "http://www.w3.org/Graphics/SVG/1.1/DTD/svg11.dtd">
<svg width="3000px" height="3000px" version="1.1" xmlns="http://www.w3.org/2000/svg" xmlns:xlink="http://www.w3.org/1999/xlink">
<g id="ideograms">
<g id="highlight0">
<path d="M 349.251,1159.741 A1200.000,1200.000 0.000 0,1 1519.999,300.167 L 1521.665,200.181 A1300.000,1300.000 0.000 0,0 253.355,1131.386 Z " style="stroke: none;   fill: rgb(116,196,118); " />
</g>
<path d="M 445.147,1188.096 A1100.000,1100.000 0.000 0,1 1518.332,400.153 L 1519.999,300.167 A1200.000,1200.000 0.000 0,0 349.251,1159.741 Z " style="stroke-width: 1.0; stroke: rgb(0,0,0);  fill: rgb(0,0,0); " />
<text x="703.6" y="476.3" style="fill: rgb(0,0,0); font-size: 130.0px; text-anchor: end" transform="rotate(-36.3,703.6,476.3)">X</text>
<path d="M 1299.466,418.434 A1100.000,1100.000 0.000 0,1 1518.332,400.153 L 1519.999,300.167 A1200.000,1200.000 0.000 0,0 1281.235,320.109 Z " style="stroke-width: 2.0; stroke: rgb(0,0,0);  fill: rgb(251,106,74); " />
<path d="M 1088.594,479.831 A1100.000,1100.000 0.000 0,1 1317.519,415.242 L 1300.929,316.627 A1200.000,1200.000 0.000 0,0 1051.193,387.088 Z " style="stroke-width: 2.0; stroke: rgb(0,0,0);  fill: rgb(116,196,118); " />
<path d="M 988.805,525.998 A1100.000,1100.000 0.000 0,1 1105.653,473.116 L 1069.803,379.763 A1200.000,1200.000 0.000 0,0 942.332,437.453 Z " style="stroke-width: 2.0; stroke: rgb(0,0,0);  fill: rgb(107,174,214); " />
<path d="M 750.212,695.129 A1100.000,1100.000 0.000 0,1 1005.108,517.614 L 960.118,428.307 A1200.000,1200.000 0.000 0,0 682.049,621.959 Z " style="stroke-width: 2.0; stroke: rgb(0,0,0);  fill: rgb(150,150,150); " />
<path d="M 564.619,921.154 A1100.000,1100.000 0.000 0,1 763.729,682.745 L 696.796,608.449 A1200.000,1200.000 0.000 0,0 479.585,868.531 Z " style="stroke-width: 2.0; stroke: rgb(0,0,0);  fill: rgb(0,0,0); " />
<path d="M 445.147,1188.096 A1100.000,1100.000 0.000 0,1 574.396,905.646 L 490.250,851.613 A1200.000,1200.000 0.000 0,0 349.251,1159.741 Z " style="stroke-width: 2.0; stroke: rgb(0,0,0);  fill: rgb(253,141,60); " />
<g id="highlight0">
</g>
<path d="M 445.147,1188.096 A1100.000,1100.000 0.000 0,1 1518.332,400.153 L 1519.999,300.167 A1200.000,1200.000 0.000 0,0 349.251,1159.741 Z " style="stroke-width: 1.0; stroke: rgb(0,0,0);  fill: none; " />
<g id="highlight0">
<path d="M 1748.190,2674.054 A1200.000,1200.000 0.000 0,1 329.140,1237.155 L 231.569,1215.251 A1300.000,1300.000 0.000 0,0 1768.872,2771.891 Z " style="stroke: none;   fill: rgb(116,196,118); " />
</g>
<path d="M 1727.507,2576.216 A1100.000,1100.000 0.000 0,1 426.712,1259.059 L 329.140,1237.155 A1200.000,1200.000 0.000 0,0 1748.190,2674.054 Z " style="stroke-width: 1.0; stroke: rgb(0,0,0);  fill: rgb(0,0,0); " />
<text x="537.9" y="2504.6" style="fill: rgb(0,0,0); font-size: 130.0px; text-anchor: end" transform="rotate(405.4,537.9,2504.6)">Y</text>
<path d="M 411.676,1659.845 A1100.000,1100.000 0.000 0,1 426.712,1259.059 L 329.140,1237.155 A1200.000,1200.000 0.000 0,0 312.737,1674.376 Z " style="stroke-width: 2.0; stroke: rgb(0,0,0);  fill: rgb(251,106,74); " />
<path d="M 692.012,2246.428 A1100.000,1100.000 0.000 0,1 409.163,1641.685 L 309.996,1654.566 A1200.000,1200.000 0.000 0,0 618.558,2314.285 Z " style="stroke-width: 2.0; stroke: rgb(0,0,0);  fill: rgb(116,196,118); " />
<path d="M 798.410,2347.214 A1100.000,1100.000 0.000 0,1 679.685,2232.859 L 605.110,2299.483 A1200.000,1200.000 0.000 0,0 734.629,2424.233 Z " style="stroke-width: 2.0; stroke: rgb(0,0,0);  fill: rgb(107,174,214); " />
<path d="M 1080.107,2516.705 A1100.000,1100.000 0.000 0,1 784.388,2335.404 L 719.332,2411.350 A1200.000,1200.000 0.000 0,0 1041.935,2609.133 Z " style="stroke-width: 2.0; stroke: rgb(0,0,0);  fill: rgb(150,150,150); " />
<path d="M 1399.310,2595.382 A1100.000,1100.000 0.000 0,1 1063.221,2509.566 L 1023.514,2601.345 A1200.000,1200.000 0.000 0,0 1390.157,2694.962 Z " style="stroke-width: 2.0; stroke: rgb(0,0,0);  fill: rgb(0,0,0); " />
<path d="M 1727.507,2576.216 A1100.000,1100.000 0.000 0,1 1381.069,2593.552 L 1370.257,2692.966 A1200.000,1200.000 0.000 0,0 1748.190,2674.054 Z " style="stroke-width: 2.0; stroke: rgb(0,0,0);  fill: rgb(253,141,60); " />
<g id="highlight0">
</g>
<path d="M 1727.507,2576.216 A1100.000,1100.000 0.000 0,1 426.712,1259.059 L 329.140,1237.155 A1200.000,1200.000 0.000 0,0 1748.190,2674.054 Z " style="stroke-width: 1.0; stroke: rgb(0,0,0);  fill: none; " />
<g id="highlight0">
<path d="M 2509.750,851.613 A1200.000,1200.000 0.000 0,1 1825.849,2654.912 L 1853.003,2751.155 A1300.000,1300.000 0.000 0,0 2593.896,797.581 Z " style="stroke: none;   fill: rgb(116,196,118); " />
</g>
<path d="M 2425.604,905.646 A1100.000,1100.000 0.000 0,1 1798.695,2558.670 L 1825.849,2654.912 A1200.000,1200.000 0.000 0,0 2509.750,851.613 Z " style="stroke-width: 1.0; stroke: rgb(0,0,0);  fill: rgb(0,0,0); " />
<text x="2786.4" y="2029.3" style="fill: rgb(0,0,0); font-size: 130.0px; text-anchor: start" transform="rotate(-69.2,2786.4,2029.3)">Z</text>
<path d="M 2295.436,2259.790 A1100.000,1100.000 0.000 0,1 1798.695,2558.670 L 1825.849,2654.912 A1200.000,1200.000 0.000 0,0 2367.749,2328.862 Z " style="stroke-width: 2.0; stroke: rgb(0,0,0);  fill: rgb(251,106,74); " />
<path d="M 2367.313,2176.585 A1100.000,1100.000 0.000 0,1 2282.663,2272.941 L 2353.815,2343.208 A1200.000,1200.000 0.000 0,0 2446.160,2238.093 Z " style="stroke-width: 2.0; stroke: rgb(0,0,0);  fill: rgb(116,196,118); " />
<path d="M 2476.123,2007.133 A1100.000,1100.000 0.000 0,1 2355.917,2190.946 L 2433.728,2253.759 A1200.000,1200.000 0.000 0,0 2564.862,2053.236 Z " style="stroke-width: 2.0; stroke: rgb(0,0,0);  fill: rgb(107,174,214); " />
<path d="M 2590.837,1641.685 A1100.000,1100.000 0.000 0,1 2467.536,2023.330 L 2555.494,2070.905 A1200.000,1200.000 0.000 0,0 2690.004,1654.566 Z " style="stroke-width: 2.0; stroke: rgb(0,0,0);  fill: rgb(150,150,150); " />
<path d="M 2573.288,1259.059 A1100.000,1100.000 0.000 0,1 2588.324,1659.845 L 2687.263,1674.376 A1200.000,1200.000 0.000 0,0 2670.860,1237.155 Z " style="stroke-width: 2.0; stroke: rgb(0,0,0);  fill: rgb(0,0,0); " />
<path d="M 2425.604,905.646 A1100.000,1100.000 0.000 0,1 2577.154,1276.979 L 2675.078,1256.704 A1200.000,1200.000 0.000 0,0 2509.750,851.613 Z " style="stroke-width: 2.0; stroke: rgb(0,0,0);  fill: rgb(253,141,60); " />
<g id="highlight0">
</g>
<path d="M 2425.604,905.646 A1100.000,1100.000 0.000 0,1 1798.695,2558.670 L 1825.849,2654.912 A1200.000,1200.000 0.000 0,0 2509.750,851.613 Z " style="stroke-width: 1.0; stroke: rgb(0,0,0);  fill: none; " />
<g id="highlight0">
<path d="M 1599.882,304.164 A1200.000,1200.000 0.000 0,1 2464.314,785.788 L 2544.674,726.271 A1300.000,1300.000 0.000 0,0 1608.205,204.511 Z " style="stroke: none;   fill: rgb(116,196,118); " />
</g>
<path d="M 1591.558,403.817 A1100.000,1100.000 0.000 0,1 2383.955,845.306 L 2464.314,785.788 A1200.000,1200.000 0.000 0,0 1599.882,304.164 Z " style="stroke-width: 1.0; stroke: rgb(0,0,0);  fill: rgb(0,0,0); " />
<text x="2162.7" y="385.7" style="fill: rgb(0,0,0); font-size: 130.0px; text-anchor: start" transform="rotate(389.1,2162.7,385.7)">A</text>
<path d="M 2326.394,774.002 A1100.000,1100.000 0.000 0,1 2383.955,845.306 L 2464.314,785.788 A1200.000,1200.000 0.000 0,0 2401.521,708.002 Z " style="stroke-width: 2.0; stroke: rgb(0,0,0);  fill: rgb(251,106,74); " />
<path d="M 2249.788,695.129 A1100.000,1100.000 0.000 0,1 2338.378,787.875 L 2414.594,723.136 A1200.000,1200.000 0.000 0,0 2317.951,621.959 Z " style="stroke-width: 2.0; stroke: rgb(0,0,0);  fill: rgb(116,196,118); " />
<path d="M 2222.548,670.588 A1100.000,1100.000 0.000 0,1 2263.098,707.736 L 2332.470,635.712 A1200.000,1200.000 0.000 0,0 2288.235,595.187 Z " style="stroke-width: 2.0; stroke: rgb(0,0,0);  fill: rgb(107,174,214); " />
<path d="M 2136.138,602.599 A1100.000,1100.000 0.000 0,1 2236.271,682.745 L 2303.204,608.449 A1200.000,1200.000 0.000 0,0 2193.969,521.017 Z " style="stroke-width: 2.0; stroke: rgb(0,0,0);  fill: rgb(150,150,150); " />
<path d="M 1961.878,501.667 A1100.000,1100.000 0.000 0,1 2151.005,613.325 L 2210.187,532.718 A1200.000,1200.000 0.000 0,0 2003.867,410.909 Z " style="stroke-width: 2.0; stroke: rgb(0,0,0);  fill: rgb(0,0,0); " />
<path d="M 1591.558,403.817 A1100.000,1100.000 0.000 0,1 1978.452,509.503 L 2021.947,419.458 A1200.000,1200.000 0.000 0,0 1599.882,304.164 Z " style="stroke-width: 2.0; stroke: rgb(0,0,0);  fill: rgb(253,141,60); " />
<g id="highlight0">
</g>
<path d="M 1591.558,403.817 A1100.000,1100.000 0.000 0,1 2383.955,845.306 L 2464.314,785.788 A1200.000,1200.000 0.000 0,0 1599.882,304.164 Z " style="stroke-width: 1.0; stroke: rgb(0,0,0);  fill: none; " />
</g>
<g id="segdup0">
<path d="M 1500.000,411.000 A 1089.000,1089.000 0.00 0,0 1319.3,426.1 L 1319.3,426.1 1326.9,478.2 1331.6,527.6 1333.7,574.4 1333.3,618.9 1330.7,661.1 1326.0,701.3 1319.3,739.7 1310.8,776.2 1300.6,811.1 1288.9,844.5 1275.7,876.5 1261.2,907.2 1245.4,936.6 1228.4,964.9 1210.3,992.1 1191.2,1018.2 1171.0,1043.3 1149.9,1067.4 1127.8,1090.5 1104.8,1112.7 1080.8,1133.9 1055.9,1154.1 1030.1,1173.3 1003.3,1191.5 975.5,1208.6 946.6,1224.5 916.6,1239.1 885.4,1252.5 852.9,1264.5 819.1,1275.0 783.8,1283.8 747.0,1290.9 708.4,1296.2 668.1,1299.4 625.7,1300.4 581.3,1299.1 534.6,1295.3 485.4,1288.7 433.6,1279.2  A 1089.000,1089.000 0.00 0,0 420.1,1640.3 L 420.1,1640.3 481.2,1631.0 538.6,1619.6 592.6,1606.3 643.6,1591.2 691.6,1574.6 737.0,1556.6 780.0,1537.2 820.8,1516.7 859.7,1495.1 896.6,1472.6 932.0,1449.2 965.8,1424.9 998.3,1400.0 1029.6,1374.4 1059.7,1348.1 1088.8,1321.2 1117.0,1293.7 1144.4,1265.6 1170.9,1236.9 1196.7,1207.6 1221.8,1177.5 1246.1,1146.8 1269.7,1115.3 1292.7,1083.0 1314.8,1049.7 1336.2,1015.4 1356.8,979.9 1376.4,943.3 1395.1,905.2 1412.7,865.6 1429.1,824.4 1444.2,781.2 1457.8,736.1 1469.9,688.7 1480.2,638.9 1488.5,586.5 1494.7,531.2 1498.6,472.8 1500.0,411.0  Z" style="stroke-width: 1.0;  stroke: rgb(0,0,0); fill: rgb(251,106,74); opacity: 0.667;"/>
<path d="M 433.617,1279.209 A 1089.000,1089.000 0.00 0,0 420.1,1640.3 L 420.1,1640.3 482.2,1633.6 541.3,1629.8 597.6,1628.8 651.3,1630.2 702.6,1633.9 751.7,1639.6 798.7,1647.2 844.0,1656.5 887.5,1667.2 929.6,1679.4 970.3,1692.8 1009.7,1707.3 1048.0,1722.9 1085.2,1739.4 1121.6,1756.8 1157.2,1775.0 1192.0,1794.1 1226.2,1813.9 1259.8,1834.5 1292.8,1855.9 1325.3,1878.2 1357.4,1901.3 1389.0,1925.3 1420.2,1950.3 1450.9,1976.4 1481.2,2003.6 1511.1,2032.2 1540.4,2062.3 1569.3,2093.9 1597.6,2127.3 1625.2,2162.7 1652.1,2200.2 1678.3,2240.1 1703.6,2282.6 1727.9,2327.9 1751.1,2376.3 1773.2,2428.1 1793.9,2483.6 1813.1,2543.0  A 1089.000,1089.000 0.00 0,0 2274.8,2265.2 L 2274.8,2265.2 2215.7,2208.2 2158.7,2155.7 2103.8,2107.5 2050.9,2063.1 2000.0,2022.2 1950.9,1984.4 1903.5,1949.6 1857.9,1917.3 1813.9,1887.4 1771.4,1859.5 1730.3,1833.4 1690.4,1808.8 1651.7,1785.6 1613.9,1763.5 1577.0,1742.4 1540.8,1722.0 1505.2,1702.2 1469.9,1682.9 1434.8,1663.9 1399.7,1645.1 1364.5,1626.4 1328.8,1607.8 1292.6,1589.1 1255.6,1570.2 1217.5,1551.2 1178.2,1532.1 1137.4,1512.7 1094.9,1493.1 1050.4,1473.4 1003.6,1453.4 954.2,1433.4 902.1,1413.3 846.9,1393.2 788.3,1373.3 726.0,1353.5 659.7,1334.1 589.1,1315.2 513.8,1296.8 433.6,1279.2  Z" style="stroke-width: 1.0;  stroke: rgb(0,0,0); fill: rgb(251,106,74); opacity: 0.667;"/>
<path d="M 1813.134,2543.009 A 1089.000,1089.000 0.00 0,0 2274.8,2265.2 L 2274.8,2265.2 2235.5,2224.5 2200.2,2184.3 2168.6,2144.5 2140.5,2105.2 2115.6,2066.2 2093.7,2027.7 2074.4,1989.4 2057.7,1951.5 2043.2,1913.9 2030.8,1876.5 2020.4,1839.4 2011.8,1802.5 2004.8,1765.8 1999.3,1729.3 1995.3,1693.0 1992.6,1656.7 1991.3,1620.6 1991.1,1584.7 1992.2,1548.8 1994.4,1513.0 1997.8,1477.2 2002.5,1441.5 2008.3,1405.9 2015.5,1370.3 2024.0,1334.7 2034.0,1299.2 2045.5,1263.6 2058.7,1228.1 2073.6,1192.6 2090.6,1157.1 2109.6,1121.5 2131.0,1086.0 2154.8,1050.5 2181.4,1014.9 2211.0,979.4 2243.8,943.9 2280.0,908.4 2320.1,872.8 2364.2,837.4  A 1089.000,1089.000 0.00 0,0 2330.0,795.0 L 2330.0,795.0 2279.1,840.0 2232.5,884.4 2189.9,928.4 2151.0,971.9 2115.4,1014.8 2082.8,1057.3 2053.0,1099.3 2025.7,1140.7 2000.6,1181.8 1977.5,1222.4 1956.2,1262.7 1936.5,1302.5 1918.2,1342.1 1901.2,1381.5 1885.3,1420.6 1870.5,1459.6 1856.5,1498.6 1843.5,1537.6 1831.1,1576.6 1819.5,1615.8 1808.6,1655.3 1798.4,1695.1 1789.0,1735.3 1780.2,1776.2 1772.2,1817.6 1765.1,1859.9 1758.9,1903.1 1753.7,1947.3 1749.7,1992.6 1747.0,2039.3 1745.8,2087.4 1746.1,2137.0 1748.3,2188.5 1752.6,2241.8 1759.1,2297.2 1768.1,2354.9 1779.9,2414.9 1794.8,2477.6 1813.1,2543.0  Z" style="stroke-width: 1.0;  stroke: rgb(0,0,0); fill: rgb(251,106,74); opacity: 0.667;"/>
<path d="M 2364.192,837.359 A 1089.000,1089.000 0.00 0,0 2330.0,795.0 L 2330.0,795.0 2292.7,825.4 2256.7,852.2 2221.7,875.9 2187.8,896.4 2154.9,914.0 2122.9,929.0 2091.8,941.4 2061.6,951.4 2032.0,959.2 2003.3,964.9 1975.2,968.7 1947.8,970.5 1921.0,970.6 1894.9,969.1 1869.4,965.9 1844.5,961.2 1820.2,955.0 1796.5,947.4 1773.4,938.4 1751.0,928.1 1729.2,916.3 1708.1,903.2 1687.6,888.6 1667.9,872.7 1649.0,855.3 1630.9,836.4 1613.7,815.9 1597.3,793.8 1582.0,770.0 1567.7,744.4 1554.6,716.9 1542.6,687.3 1531.9,655.5 1522.6,621.5 1514.8,585.0 1508.5,545.9 1503.8,504.0 1501.0,459.1 1500.0,411.0  A 1089.000,1089.000 0.00 0,0 1319.3,426.1 L 1319.3,426.1 1328.9,476.1 1340.1,522.6 1352.9,565.9 1367.1,606.1 1382.6,643.5 1399.3,678.3 1417.2,710.6 1436.2,740.6 1456.2,768.5 1477.2,794.4 1499.0,818.5 1521.6,840.8 1545.0,861.5 1569.0,880.6 1593.8,898.2 1619.1,914.4 1645.1,929.2 1671.6,942.7 1698.7,954.8 1726.2,965.7 1754.3,975.2 1782.9,983.4 1812.0,990.3 1841.6,995.7 1871.7,999.7 1902.4,1002.1 1933.5,1002.9 1965.3,1002.0 1997.6,999.3 2030.6,994.6 2064.3,987.8 2098.6,978.8 2133.8,967.4 2169.7,953.3 2206.6,936.6 2244.4,916.8 2283.2,893.8 2323.1,867.4 2364.2,837.4  Z" style="stroke-width: 1.0;  stroke: rgb(0,0,0); fill: rgb(251,106,74); opacity: 0.667;"/>
</g>
</svg>
