<?xml version="1.0" standalone="no"?>
<!DOCTYPE svg PUBLIC "-//W3C//DTD SVG 1.1//EN" "http://www.w3.org/Graphics/SVG/1.1/DTD/svg11.dtd">
<svg width="3000px" height="3000px" version="1.1" xmlns="http://www.w3.org/2000/svg" xmlns:xlink="http://www.w3.org/1999/xlink">
<g id="ideograms">
<path d="M 1497.423,250.003 A1250.000,1250.000 0.000 0,1 2601.355,2091.200 L 2689.463,2138.496 A1350.000,1350.000 0.000 0,0 1497.217,150.003 Z " style="stroke-width: 1.0; stroke: rgb(0,0,0);  fill: rgb(253,141,60); " />
<path d="M 1497.423,250.003 A1250.000,1250.000 0.000 0,1 1758.373,276.994 L 1779.043,179.154 A1350.000,1350.000 0.000 0,0 1497.217,150.003 Z " style="stroke: none;   fill: rgb(150,150,150); " />
<path d="M 1755.852,276.464 A1250.000,1250.000 0.000 0,1 2003.230,355.771 L 2043.488,264.233 A1350.000,1350.000 0.000 0,0 1776.320,178.581 Z " style="stroke: none;   fill: rgb(251,106,74); " />
<path d="M 2000.870,354.736 A1250.000,1250.000 0.000 0,1 2419.553,653.287 L 2493.117,585.550 A1350.000,1350.000 0.000 0,0 2040.940,263.115 Z " style="stroke: none;   fill: rgb(116,196,118); " />
<path d="M 2417.805,651.393 A1250.000,1250.000 0.000 0,1 2740.127,1343.205 L 2839.337,1330.661 A1350.000,1350.000 0.000 0,0 2491.230,583.505 Z " style="stroke: none;   fill: rgb(107,174,214); " />
<path d="M 1497.423,250.003 A1250.000,1250.000 0.000 0,1 2601.355,2091.200 L 2689.463,2138.496 A1350.000,1350.000 0.000 0,0 1497.217,150.003 Z " style="stroke-width: 1.0; stroke: rgb(0,0,0);  fill: none; " />
<path d="M 2583.818,2122.767 A1250.000,1250.000 0.000 0,1 389.037,927.059 L 300.160,881.224 A1350.000,1350.000 0.000 0,0 2670.523,2172.589 Z " style="stroke-width: 1.0; stroke: rgb(0,0,0);  fill: rgb(251,106,74); " />
<path d="M 2583.818,2122.767 A1250.000,1250.000 0.000 0,1 2429.967,2335.261 L 2504.365,2402.082 A1350.000,1350.000 0.000 0,0 2670.523,2172.589 Z " style="stroke: none;   fill: rgb(150,150,150); " />
<path d="M 2431.687,2333.342 A1250.000,1250.000 0.000 0,1 2239.316,2507.924 L 2298.462,2588.558 A1350.000,1350.000 0.000 0,0 2506.222,2400.009 Z " style="stroke: none;   fill: rgb(251,106,74); " />
<path d="M 2241.393,2506.398 A1250.000,1250.000 0.000 0,1 1773.499,2719.712 L 1795.378,2817.289 A1350.000,1350.000 0.000 0,0 2300.704,2586.910 Z " style="stroke: none;   fill: rgb(116,196,118); " />
<path d="M 1776.012,2719.146 A1250.000,1250.000 0.000 0,1 1015.725,2652.379 L 976.983,2744.570 A1350.000,1350.000 0.000 0,0 1798.093,2816.678 Z " style="stroke: none;   fill: rgb(107,174,214); " />
<path d="M 2583.818,2122.767 A1250.000,1250.000 0.000 0,1 389.037,927.059 L 300.160,881.224 A1350.000,1350.000 0.000 0,0 2670.523,2172.589 Z " style="stroke-width: 1.0; stroke: rgb(0,0,0);  fill: none; " />
<path d="M 406.051,895.207 A1250.000,1250.000 0.000 0,1 1461.317,250.599 L 1458.222,150.647 A1350.000,1350.000 0.000 0,0 318.535,846.823 Z " style="stroke-width: 1.0; stroke: rgb(0,0,0);  fill: rgb(107,174,214); " />
<path d="M 406.051,895.207 A1250.000,1250.000 0.000 0,1 477.034,781.640 L 395.197,724.171 A1350.000,1350.000 0.000 0,0 318.535,846.823 Z " style="stroke: none;   fill: rgb(150,150,150); " />
<path d="M 475.556,783.750 A1250.000,1250.000 0.000 0,1 556.373,680.203 L 480.882,614.619 A1350.000,1350.000 0.000 0,0 393.600,726.450 Z " style="stroke: none;   fill: rgb(251,106,74); " />
<path d="M 554.685,682.150 A1250.000,1250.000 0.000 0,1 963.928,370.785 L 921.042,280.448 A1350.000,1350.000 0.000 0,0 479.060,616.722 Z " style="stroke: none;   fill: rgb(116,196,118); " />
<path d="M 961.601,371.892 A1250.000,1250.000 0.000 0,1 1461.317,250.599 L 1458.222,150.647 A1350.000,1350.000 0.000 0,0 918.529,281.644 Z " style="stroke: none;   fill: rgb(107,174,214); " />
<path d="M 406.051,895.207 A1250.000,1250.000 0.000 0,1 1461.317,250.599 L 1458.222,150.647 A1350.000,1350.000 0.000 0,0 318.535,846.823 Z " style="stroke-width: 1.0; stroke: rgb(0,0,0);  fill: none; " />
</g>
<g id="segdup2">
<path d="M 1751.914,307.569 A 1218.750,1218.750 0.00 0,1 1988.3,383.4 L 1988.3,383.4 1960.3,451.3 1936.3,516.8 1916.2,579.9 1899.5,640.9 1885.9,699.9 1875.1,757.0 1866.9,812.5 1861.1,866.3 1857.3,918.7 1855.3,969.9 1855.1,1019.8 1856.3,1068.7 1858.9,1116.6 1862.7,1163.8 1867.6,1210.2 1873.5,1256.0 1880.5,1301.3 1888.3,1346.2 1897.0,1390.8 1906.6,1435.1 1917.1,1479.3 1928.6,1523.4 1941.0,1567.5 1954.6,1611.7 1969.3,1656.0 1985.4,1700.4 2002.9,1745.2 2022.0,1790.2 2042.9,1835.5 2065.8,1881.3 2091.0,1927.4 2118.6,1974.0 2149.0,2021.1 2182.4,2068.6 2219.2,2116.7 2259.6,2165.3 2304.1,2214.5 2353.0,2264.1 2406.7,2314.4  A 1218.750,1218.750 0.00 0,1 2222.9,2481.2 L 2222.9,2481.2 2174.0,2412.7 2129.7,2346.4 2089.8,2282.3 2053.6,2220.3 2021.1,2160.3 1991.6,2102.1 1965.0,2045.8 1941.0,1991.1 1919.2,1938.0 1899.4,1886.3 1881.3,1835.9 1864.8,1786.7 1849.7,1738.5 1835.6,1691.2 1822.6,1644.7 1810.4,1598.9 1799.0,1553.4 1788.2,1508.3 1777.9,1463.3 1768.2,1418.3 1758.9,1373.2 1750.0,1327.6 1741.7,1281.5 1733.8,1234.7 1726.4,1187.0 1719.6,1138.2 1713.5,1088.0 1708.1,1036.4 1703.7,983.1 1700.3,927.8 1698.2,870.4 1697.4,810.7 1698.3,748.4 1701.1,683.3 1705.9,615.2 1713.1,543.8 1722.9,468.9 1735.8,390.2 1751.9,307.6  Z" style="stroke-width: 1.0;  stroke: rgb(0,0,0); fill: rgb(251,106,74);"/>
</g>
<g id="segdup1">
<path d="M 1500.000,281.250 A 1218.750,1218.750 0.00 0,1 1749.5,307.1 L 1749.5,307.1 1735.9,379.3 1725.8,448.3 1719.0,514.2 1715.2,577.4 1713.9,637.9 1715.1,696.0 1718.5,751.9 1723.7,805.8 1730.7,857.9 1739.3,908.3 1749.3,957.3 1760.5,1004.9 1772.8,1051.3 1786.2,1096.7 1800.5,1141.1 1815.7,1184.7 1831.7,1227.6 1848.6,1270.0 1866.2,1311.8 1884.7,1353.3 1904.0,1394.4 1924.3,1435.2 1945.5,1475.8 1967.8,1516.3 1991.3,1556.6 2016.1,1596.9 2042.4,1637.1 2070.3,1677.2 2100.1,1717.3 2131.9,1757.4 2165.9,1797.4 2202.5,1837.4 2241.9,1877.2 2284.4,1916.9 2330.2,1956.4 2379.7,1995.7 2433.3,2034.7 2491.4,2073.4 2554.2,2111.5  A 1218.750,1218.750 0.00 0,1 2408.4,2312.5 L 2408.4,2312.5 2346.5,2255.4 2289.6,2199.5 2237.3,2144.9 2189.2,2091.6 2145.0,2039.5 2104.2,1988.6 2066.6,1938.9 2031.9,1890.3 1999.6,1842.7 1969.6,1796.2 1941.6,1750.6 1915.3,1705.8 1890.6,1661.8 1867.2,1618.4 1844.8,1575.6 1823.5,1533.2 1803.0,1491.1 1783.1,1449.1 1763.8,1407.2 1745.0,1365.2 1726.7,1322.9 1708.6,1280.2 1691.0,1236.8 1673.6,1192.6 1656.5,1147.4 1639.8,1101.0 1623.5,1053.2 1607.6,1003.8 1592.3,952.5 1577.6,899.1 1563.7,843.4 1550.6,785.1 1538.6,723.9 1527.9,659.6 1518.5,591.9 1510.8,520.5 1505.0,445.2 1501.3,365.5 1500.0,281.2  Z" style="stroke-width: 1.0;  stroke: rgb(0,0,0); fill: rgb(150,150,150);"/>
<path d="M 2554.210,2111.549 A 1218.750,1218.750 0.00 0,1 2408.4,2312.5 L 2408.4,2312.5 2331.9,2245.1 2259.3,2182.8 2190.5,2125.4 2125.3,2072.5 2063.5,2023.7 2005.0,1978.7 1949.7,1937.0 1897.3,1898.4 1847.8,1862.6 1800.8,1829.3 1756.1,1798.0 1713.7,1768.6 1673.3,1740.8 1634.5,1714.3 1597.3,1688.9 1561.4,1664.2 1526.6,1640.1 1492.5,1616.4 1459.0,1592.7 1425.7,1569.0 1392.4,1545.0 1358.8,1520.5 1324.7,1495.4 1289.7,1469.5 1253.5,1442.6 1215.9,1414.7 1176.4,1385.5 1134.8,1354.9 1090.7,1322.9 1043.8,1289.4 993.8,1254.2 940.3,1217.2 882.9,1178.5 821.3,1137.9 755.0,1095.4 683.7,1051.0 607.0,1004.6 524.5,956.3 435.8,905.9  A 1218.750,1218.750 0.00 0,1 501.2,801.7 L 501.2,801.7 588.3,861.9 670.4,917.4 747.6,968.4 820.2,1015.3 888.4,1058.5 952.4,1098.2 1012.4,1134.8 1068.7,1168.5 1121.6,1199.8 1171.3,1228.8 1218.1,1255.9 1262.1,1281.3 1303.8,1305.3 1343.4,1328.2 1381.0,1350.1 1417.2,1371.5 1452.0,1392.4 1485.9,1413.1 1519.1,1433.8 1552.0,1454.8 1584.8,1476.1 1617.8,1498.1 1651.5,1520.9 1686.0,1544.7 1721.8,1569.7 1759.2,1595.9 1798.6,1623.5 1840.2,1652.8 1884.5,1683.8 1931.7,1716.6 1982.3,1751.4 2036.7,1788.3 2095.2,1827.3 2158.2,1868.6 2226.0,1912.2 2299.1,1958.3 2378.0,2006.8 2462.8,2057.9 2554.2,2111.5  Z" style="stroke-width: 1.0;  stroke: rgb(0,0,0); fill: rgb(150,150,150);"/>
</g>
<g id="plot0">
<g id="plot0-axis">
</g>
<text x="844.2" y="2764.0" style="fill: rgb(0,0,0); font-size: 104.0px; text-anchor: end" transform="rotate(298.6,844.2,2764.0)">Y</text>
<text x="2735.0" y="793.1" style="fill: rgb(0,0,0); font-size: 104.0px; text-anchor: start" transform="rotate(329.1,2735.0,793.1)">X</text>
<text x="738.4" y="308.6" style="fill: rgb(0,0,0); font-size: 104.0px; text-anchor: end" transform="rotate(58.6,738.4,308.6)">Z</text>
</g>
</svg>
